<?xml version="1.0" encoding="UTF-8"?>
<svg id="Layer_1" xmlns="http://www.w3.org/2000/svg" version="1.1" viewBox="0 0 792 612">
  <!-- Generator: Adobe Illustrator 30.2.1, SVG Export Plug-In . SVG Version: 2.1.1 Build 1)  -->
  <defs>
    <style>
      .st0 {
        opacity: .14;
      }

      .st1 {
        fill: #de9fb0;
      }
    </style>
  </defs>
  <g class="st0">
    <path class="st1" d="M64.12,55.79c-7.69.49-12.82,3.18-12.82,3.18,0,0,6.42,12.2,21.19,17.01,7.64,2.49,13.2,1.58,16.78.14-4.47-.28-10.81-2.2-17.46-9.17-3.48-3.64-5.95-7.51-7.7-11.16h0Z"/>
    <path class="st1" d="M82.44,52.11c0-1.52.08-3,.22-4.41-9.92-7.82-20.21-8.03-20.21-8.03,0,0,.26,13.93,11.19,25.37,6.76,7.07,13.03,8.42,16.84,8.41-3.17-2.83-8.04-9.16-8.04-21.34Z"/>
    <path class="st1" d="M124.39,55.79c-1.75,3.64-4.22,7.51-7.7,11.16-6.66,6.96-12.99,8.89-17.46,9.17,3.58,1.45,9.14,2.35,16.78-.14,14.77-4.8,21.19-17.01,21.19-17.01,0,0-5.12-2.69-12.82-3.18,0,0,.01,0,.01,0Z"/>
    <path class="st1" d="M126.06,39.68s-10.29.21-20.21,8.03c.14,1.42.22,2.89.22,4.41,0,12.18-4.87,18.51-8.04,21.34,3.81,0,10.08-1.34,16.84-8.41,10.94-11.44,11.19-25.37,11.19-25.37Z"/>
    <path class="st1" d="M94.25,25.9s-9.24,10.04-9.24,26.22,9.24,20.82,9.24,20.82c0,0,9.24-4.64,9.24-20.82s-9.24-26.22-9.24-26.22Z"/>
    <path class="st1" d="M85.28,36.39c-4.84-4.62-9.19-6.48-9.19-6.48,0,0-1.38,3.94-1.59,9.95,2.69,1.12,5.62,2.67,8.56,4.82.51-3.07,1.31-5.84,2.22-8.29Z"/>
    <path class="st1" d="M114.02,39.85c-.21-6-1.59-9.94-1.59-9.94,0,0-4.35,1.86-9.2,6.48.91,2.44,1.7,5.22,2.22,8.28,2.94-2.15,5.87-3.71,8.56-4.82h0Z"/>
  </g>
  <g class="st0">
    <path class="st1" d="M64.12,157.09c-7.69.49-12.82,3.18-12.82,3.18,0,0,6.42,12.2,21.19,17.01,7.64,2.49,13.2,1.58,16.78.14-4.47-.28-10.81-2.2-17.46-9.17-3.48-3.64-5.95-7.51-7.7-11.16h0Z"/>
    <path class="st1" d="M82.44,153.41c0-1.52.08-3,.22-4.41-9.92-7.82-20.21-8.03-20.21-8.03,0,0,.26,13.93,11.19,25.37,6.76,7.07,13.03,8.42,16.84,8.41-3.17-2.83-8.04-9.16-8.04-21.34Z"/>
    <path class="st1" d="M124.39,157.09c-1.75,3.64-4.22,7.51-7.7,11.16-6.66,6.96-12.99,8.89-17.46,9.17,3.58,1.45,9.14,2.35,16.78-.14,14.77-4.8,21.19-17.01,21.19-17.01,0,0-5.12-2.69-12.82-3.18h.01Z"/>
    <path class="st1" d="M126.06,140.97s-10.29.21-20.21,8.03c.14,1.42.22,2.89.22,4.41,0,12.18-4.87,18.51-8.04,21.34,3.81,0,10.08-1.34,16.84-8.41,10.94-11.44,11.19-25.37,11.19-25.37Z"/>
    <path class="st1" d="M94.25,127.19s-9.24,10.04-9.24,26.22,9.24,20.82,9.24,20.82c0,0,9.24-4.64,9.24-20.82s-9.24-26.22-9.24-26.22Z"/>
    <path class="st1" d="M85.28,137.68c-4.84-4.62-9.19-6.48-9.19-6.48,0,0-1.38,3.94-1.59,9.95,2.69,1.12,5.62,2.67,8.56,4.82.51-3.07,1.31-5.84,2.22-8.29h0Z"/>
    <path class="st1" d="M114.02,141.14c-.21-6-1.59-9.94-1.59-9.94,0,0-4.35,1.86-9.2,6.48.91,2.44,1.7,5.22,2.22,8.28,2.94-2.15,5.87-3.71,8.56-4.82h0Z"/>
  </g>
  <g class="st0">
    <path class="st1" d="M64.12,258.38c-7.69.49-12.82,3.18-12.82,3.18,0,0,6.42,12.2,21.19,17.01,7.64,2.49,13.2,1.58,16.78.14-4.47-.28-10.81-2.2-17.46-9.17-3.48-3.64-5.95-7.51-7.7-11.16h0Z"/>
    <path class="st1" d="M82.44,254.7c0-1.52.08-3,.22-4.41-9.92-7.82-20.21-8.03-20.21-8.03,0,0,.26,13.93,11.19,25.37,6.76,7.07,13.03,8.42,16.84,8.41-3.17-2.83-8.04-9.16-8.04-21.34h0Z"/>
    <path class="st1" d="M124.39,258.38c-1.75,3.64-4.22,7.51-7.7,11.16-6.66,6.96-12.99,8.89-17.46,9.17,3.58,1.45,9.14,2.35,16.78-.14,14.77-4.8,21.19-17.01,21.19-17.01,0,0-5.12-2.69-12.82-3.18h.01Z"/>
    <path class="st1" d="M126.06,242.26s-10.29.21-20.21,8.03c.14,1.42.22,2.89.22,4.41,0,12.18-4.87,18.51-8.04,21.34,3.81,0,10.08-1.34,16.84-8.41,10.94-11.44,11.19-25.37,11.19-25.37h0Z"/>
    <path class="st1" d="M94.25,228.48s-9.24,10.04-9.24,26.22,9.24,20.82,9.24,20.82c0,0,9.24-4.64,9.24-20.82s-9.24-26.22-9.24-26.22h0Z"/>
    <path class="st1" d="M85.28,238.97c-4.84-4.62-9.19-6.48-9.19-6.48,0,0-1.38,3.94-1.59,9.95,2.69,1.12,5.62,2.67,8.56,4.82.51-3.07,1.31-5.84,2.22-8.29h0Z"/>
    <path class="st1" d="M114.02,242.44c-.21-6-1.59-9.94-1.59-9.94,0,0-4.35,1.86-9.2,6.48.91,2.44,1.7,5.22,2.22,8.28,2.94-2.15,5.87-3.71,8.56-4.82h0Z"/>
  </g>
  <g class="st0">
    <path class="st1" d="M64.12,359.67c-7.69.49-12.82,3.18-12.82,3.18,0,0,6.42,12.2,21.19,17.01,7.64,2.49,13.2,1.58,16.78.14-4.47-.28-10.81-2.2-17.46-9.17-3.48-3.64-5.95-7.51-7.7-11.16h0Z"/>
    <path class="st1" d="M82.44,355.99c0-1.52.08-3,.22-4.41-9.92-7.82-20.21-8.03-20.21-8.03,0,0,.26,13.93,11.19,25.37,6.76,7.07,13.03,8.42,16.84,8.41-3.17-2.83-8.04-9.16-8.04-21.34Z"/>
    <path class="st1" d="M124.39,359.67c-1.75,3.64-4.22,7.51-7.7,11.16-6.66,6.96-12.99,8.89-17.46,9.17,3.58,1.45,9.14,2.35,16.78-.14,14.77-4.8,21.19-17.01,21.19-17.01,0,0-5.12-2.69-12.82-3.18h.01Z"/>
    <path class="st1" d="M126.06,343.56s-10.29.21-20.21,8.03c.14,1.42.22,2.89.22,4.41,0,12.18-4.87,18.51-8.04,21.34,3.81,0,10.08-1.34,16.84-8.41,10.94-11.44,11.19-25.37,11.19-25.37Z"/>
    <path class="st1" d="M94.25,329.78s-9.24,10.04-9.24,26.22,9.24,20.82,9.24,20.82c0,0,9.24-4.64,9.24-20.82s-9.24-26.22-9.24-26.22Z"/>
    <path class="st1" d="M85.28,340.27c-4.84-4.62-9.19-6.48-9.19-6.48,0,0-1.38,3.94-1.59,9.95,2.69,1.12,5.62,2.67,8.56,4.82.51-3.07,1.31-5.84,2.22-8.29Z"/>
    <path class="st1" d="M114.02,343.73c-.21-6-1.59-9.94-1.59-9.94,0,0-4.35,1.86-9.2,6.48.91,2.44,1.7,5.22,2.22,8.28,2.94-2.15,5.87-3.71,8.56-4.82h0Z"/>
  </g>
  <g class="st0">
    <path class="st1" d="M64.12,460.97c-7.69.49-12.82,3.18-12.82,3.18,0,0,6.42,12.2,21.19,17.01,7.64,2.49,13.2,1.58,16.78.14-4.47-.28-10.81-2.2-17.46-9.17-3.48-3.64-5.95-7.51-7.7-11.16h0Z"/>
    <path class="st1" d="M82.44,457.29c0-1.52.08-3,.22-4.41-9.92-7.82-20.21-8.03-20.21-8.03,0,0,.26,13.93,11.19,25.37,6.76,7.07,13.03,8.42,16.84,8.41-3.17-2.83-8.04-9.16-8.04-21.34Z"/>
    <path class="st1" d="M124.39,460.97c-1.75,3.64-4.22,7.51-7.7,11.16-6.66,6.96-12.99,8.89-17.46,9.17,3.58,1.45,9.14,2.35,16.78-.14,14.77-4.8,21.19-17.01,21.19-17.01,0,0-5.12-2.69-12.82-3.18h.01Z"/>
    <path class="st1" d="M126.06,444.85s-10.29.21-20.21,8.03c.14,1.42.22,2.89.22,4.41,0,12.18-4.87,18.51-8.04,21.34,3.81,0,10.08-1.34,16.84-8.41,10.94-11.44,11.19-25.37,11.19-25.37Z"/>
    <path class="st1" d="M94.25,431.07s-9.24,10.04-9.24,26.22,9.24,20.82,9.24,20.82c0,0,9.24-4.64,9.24-20.82s-9.24-26.22-9.24-26.22Z"/>
    <path class="st1" d="M85.28,441.56c-4.84-4.62-9.19-6.48-9.19-6.48,0,0-1.38,3.94-1.59,9.95,2.69,1.12,5.62,2.67,8.56,4.82.51-3.07,1.31-5.84,2.22-8.29Z"/>
    <path class="st1" d="M114.02,445.02c-.21-6-1.59-9.94-1.59-9.94,0,0-4.35,1.86-9.2,6.48.91,2.44,1.7,5.22,2.22,8.28,2.94-2.15,5.87-3.71,8.56-4.82h0Z"/>
  </g>
  <g class="st0">
    <path class="st1" d="M64.12,562.26c-7.69.49-12.82,3.18-12.82,3.18,0,0,6.42,12.2,21.19,17.01,7.64,2.49,13.2,1.58,16.78.14-4.47-.28-10.81-2.2-17.46-9.17-3.48-3.64-5.95-7.51-7.7-11.16h0Z"/>
    <path class="st1" d="M82.44,558.58c0-1.52.08-3,.22-4.41-9.92-7.82-20.21-8.03-20.21-8.03,0,0,.26,13.93,11.19,25.37,6.76,7.07,13.03,8.42,16.84,8.41-3.17-2.83-8.04-9.16-8.04-21.34h0Z"/>
    <path class="st1" d="M124.39,562.26c-1.75,3.64-4.22,7.51-7.7,11.16-6.66,6.96-12.99,8.89-17.46,9.17,3.58,1.45,9.14,2.35,16.78-.14,14.77-4.8,21.19-17.01,21.19-17.01,0,0-5.12-2.69-12.82-3.18h.01Z"/>
    <path class="st1" d="M126.06,546.14s-10.29.21-20.21,8.03c.14,1.42.22,2.89.22,4.41,0,12.18-4.87,18.51-8.04,21.34,3.81,0,10.08-1.34,16.84-8.41,10.94-11.44,11.19-25.37,11.19-25.37h0Z"/>
    <path class="st1" d="M94.25,532.36s-9.24,10.04-9.24,26.22,9.24,20.82,9.24,20.82c0,0,9.24-4.64,9.24-20.82s-9.24-26.22-9.24-26.22Z"/>
    <path class="st1" d="M85.28,542.85c-4.84-4.62-9.19-6.48-9.19-6.48,0,0-1.38,3.94-1.59,9.95,2.69,1.12,5.62,2.67,8.56,4.82.51-3.07,1.31-5.84,2.22-8.29h0Z"/>
    <path class="st1" d="M114.02,546.32c-.21-6-1.59-9.94-1.59-9.94,0,0-4.35,1.86-9.2,6.48.91,2.44,1.7,5.22,2.22,8.28,2.94-2.15,5.87-3.71,8.56-4.82h0Z"/>
  </g>
  <g class="st0">
    <path class="st1" d="M213.15,55.79c-7.69.49-12.82,3.18-12.82,3.18,0,0,6.42,12.2,21.19,17.01,7.64,2.49,13.2,1.58,16.78.14-4.47-.28-10.81-2.2-17.46-9.17-3.48-3.64-5.95-7.51-7.7-11.16h0Z"/>
    <path class="st1" d="M231.47,52.12c0-1.52.08-3,.22-4.41-9.92-7.82-20.21-8.03-20.21-8.03,0,0,.26,13.93,11.19,25.37,6.76,7.07,13.03,8.42,16.84,8.41-3.17-2.83-8.04-9.16-8.04-21.34h0Z"/>
    <path class="st1" d="M273.42,55.79c-1.75,3.64-4.22,7.51-7.7,11.16-6.66,6.96-12.99,8.89-17.46,9.17,3.58,1.45,9.14,2.35,16.78-.14,14.77-4.8,21.19-17.01,21.19-17.01,0,0-5.12-2.69-12.82-3.18,0,0,.01,0,.01,0Z"/>
    <path class="st1" d="M275.09,39.68s-10.29.21-20.21,8.03c.14,1.42.22,2.89.22,4.41,0,12.18-4.87,18.51-8.04,21.34,3.81,0,10.08-1.34,16.84-8.41,10.94-11.44,11.19-25.37,11.19-25.37h0Z"/>
    <path class="st1" d="M243.29,25.9s-9.24,10.04-9.24,26.22,9.24,20.82,9.24,20.82c0,0,9.24-4.64,9.24-20.82s-9.24-26.22-9.24-26.22Z"/>
    <path class="st1" d="M234.31,36.39c-4.84-4.62-9.19-6.48-9.19-6.48,0,0-1.38,3.94-1.59,9.95,2.69,1.12,5.62,2.67,8.56,4.82.51-3.07,1.31-5.84,2.22-8.29Z"/>
    <path class="st1" d="M263.05,39.85c-.21-6-1.59-9.94-1.59-9.94,0,0-4.35,1.86-9.2,6.48.91,2.44,1.7,5.22,2.22,8.28,2.94-2.15,5.87-3.71,8.56-4.82h0Z"/>
  </g>
  <g class="st0">
    <path class="st1" d="M213.15,157.09c-7.69.49-12.82,3.18-12.82,3.18,0,0,6.42,12.2,21.19,17.01,7.64,2.49,13.2,1.58,16.78.14-4.47-.28-10.81-2.2-17.46-9.17-3.48-3.64-5.95-7.51-7.7-11.16h0Z"/>
    <path class="st1" d="M231.47,153.41c0-1.52.08-3,.22-4.41-9.92-7.82-20.21-8.03-20.21-8.03,0,0,.26,13.93,11.19,25.37,6.76,7.07,13.03,8.42,16.84,8.41-3.17-2.83-8.04-9.16-8.04-21.34h0Z"/>
    <path class="st1" d="M273.42,157.09c-1.75,3.64-4.22,7.51-7.7,11.16-6.66,6.96-12.99,8.89-17.46,9.17,3.58,1.45,9.14,2.35,16.78-.14,14.77-4.8,21.19-17.01,21.19-17.01,0,0-5.12-2.69-12.82-3.18h.01Z"/>
    <path class="st1" d="M275.09,140.97s-10.29.21-20.21,8.03c.14,1.42.22,2.89.22,4.41,0,12.18-4.87,18.51-8.04,21.34,3.81,0,10.08-1.34,16.84-8.41,10.94-11.44,11.19-25.37,11.19-25.37h0Z"/>
    <path class="st1" d="M243.29,127.19s-9.24,10.04-9.24,26.22,9.24,20.82,9.24,20.82c0,0,9.24-4.64,9.24-20.82s-9.24-26.22-9.24-26.22Z"/>
    <path class="st1" d="M234.31,137.68c-4.84-4.62-9.19-6.48-9.19-6.48,0,0-1.38,3.94-1.59,9.95,2.69,1.12,5.62,2.67,8.56,4.82.51-3.07,1.31-5.84,2.22-8.29h0Z"/>
    <path class="st1" d="M263.05,141.15c-.21-6-1.59-9.94-1.59-9.94,0,0-4.35,1.86-9.2,6.48.91,2.44,1.7,5.22,2.22,8.28,2.94-2.15,5.87-3.71,8.56-4.82h0Z"/>
  </g>
  <g class="st0">
    <path class="st1" d="M213.15,258.38c-7.69.49-12.82,3.18-12.82,3.18,0,0,6.42,12.2,21.19,17.01,7.64,2.49,13.2,1.58,16.78.14-4.47-.28-10.81-2.2-17.46-9.17-3.48-3.64-5.95-7.51-7.7-11.16h0Z"/>
    <path class="st1" d="M231.47,254.7c0-1.52.08-3,.22-4.41-9.92-7.82-20.21-8.03-20.21-8.03,0,0,.26,13.93,11.19,25.37,6.76,7.07,13.03,8.42,16.84,8.41-3.17-2.83-8.04-9.16-8.04-21.34h0Z"/>
    <path class="st1" d="M273.42,258.38c-1.75,3.64-4.22,7.51-7.7,11.16-6.66,6.96-12.99,8.89-17.46,9.17,3.58,1.45,9.14,2.35,16.78-.14,14.77-4.8,21.19-17.01,21.19-17.01,0,0-5.12-2.69-12.82-3.18h.01Z"/>
    <path class="st1" d="M275.09,242.26s-10.29.21-20.21,8.03c.14,1.42.22,2.89.22,4.41,0,12.18-4.87,18.51-8.04,21.34,3.81,0,10.08-1.34,16.84-8.41,10.94-11.44,11.19-25.37,11.19-25.37h0Z"/>
    <path class="st1" d="M243.29,228.49s-9.24,10.04-9.24,26.22,9.24,20.82,9.24,20.82c0,0,9.24-4.64,9.24-20.82s-9.24-26.22-9.24-26.22h0Z"/>
    <path class="st1" d="M234.31,238.97c-4.84-4.62-9.19-6.48-9.19-6.48,0,0-1.38,3.94-1.59,9.95,2.69,1.12,5.62,2.67,8.56,4.82.51-3.07,1.31-5.84,2.22-8.29h0Z"/>
    <path class="st1" d="M263.05,242.44c-.21-6-1.59-9.94-1.59-9.94,0,0-4.35,1.86-9.2,6.48.91,2.44,1.7,5.22,2.22,8.28,2.94-2.15,5.87-3.71,8.56-4.82h0Z"/>
  </g>
  <g class="st0">
    <path class="st1" d="M213.15,359.67c-7.69.49-12.82,3.18-12.82,3.18,0,0,6.42,12.2,21.19,17.01,7.64,2.49,13.2,1.58,16.78.14-4.47-.28-10.81-2.2-17.46-9.17-3.48-3.64-5.95-7.51-7.7-11.16h0Z"/>
    <path class="st1" d="M231.47,356c0-1.52.08-3,.22-4.41-9.92-7.82-20.21-8.03-20.21-8.03,0,0,.26,13.93,11.19,25.37,6.76,7.07,13.03,8.42,16.84,8.41-3.17-2.83-8.04-9.16-8.04-21.34h0Z"/>
    <path class="st1" d="M273.42,359.67c-1.75,3.64-4.22,7.51-7.7,11.16-6.66,6.96-12.99,8.89-17.46,9.17,3.58,1.45,9.14,2.35,16.78-.14,14.77-4.8,21.19-17.01,21.19-17.01,0,0-5.12-2.69-12.82-3.18h.01Z"/>
    <path class="st1" d="M275.09,343.56s-10.29.21-20.21,8.03c.14,1.42.22,2.89.22,4.41,0,12.18-4.87,18.51-8.04,21.34,3.81,0,10.08-1.34,16.84-8.41,10.94-11.44,11.19-25.37,11.19-25.37h0Z"/>
    <path class="st1" d="M243.29,329.78s-9.24,10.04-9.24,26.22,9.24,20.82,9.24,20.82c0,0,9.24-4.64,9.24-20.82s-9.24-26.22-9.24-26.22Z"/>
    <path class="st1" d="M234.31,340.27c-4.84-4.62-9.19-6.48-9.19-6.48,0,0-1.38,3.94-1.59,9.95,2.69,1.12,5.62,2.67,8.56,4.82.51-3.07,1.31-5.84,2.22-8.29Z"/>
    <path class="st1" d="M263.05,343.73c-.21-6-1.59-9.94-1.59-9.94,0,0-4.35,1.86-9.2,6.48.91,2.44,1.7,5.22,2.22,8.28,2.94-2.15,5.87-3.71,8.56-4.82h0Z"/>
  </g>
  <g class="st0">
    <path class="st1" d="M213.15,460.97c-7.69.49-12.82,3.18-12.82,3.18,0,0,6.42,12.2,21.19,17.01,7.64,2.49,13.2,1.58,16.78.14-4.47-.28-10.81-2.2-17.46-9.17-3.48-3.64-5.95-7.51-7.7-11.16h0Z"/>
    <path class="st1" d="M231.47,457.29c0-1.52.08-3,.22-4.41-9.92-7.82-20.21-8.03-20.21-8.03,0,0,.26,13.93,11.19,25.37,6.76,7.07,13.03,8.42,16.84,8.41-3.17-2.83-8.04-9.16-8.04-21.34h0Z"/>
    <path class="st1" d="M273.42,460.97c-1.75,3.64-4.22,7.51-7.7,11.16-6.66,6.96-12.99,8.89-17.46,9.17,3.58,1.45,9.14,2.35,16.78-.14,14.77-4.8,21.19-17.01,21.19-17.01,0,0-5.12-2.69-12.82-3.18h.01Z"/>
    <path class="st1" d="M275.09,444.85s-10.29.21-20.21,8.03c.14,1.42.22,2.89.22,4.41,0,12.18-4.87,18.51-8.04,21.34,3.81,0,10.08-1.34,16.84-8.41,10.94-11.44,11.19-25.37,11.19-25.37h0Z"/>
    <path class="st1" d="M243.29,431.07s-9.24,10.04-9.24,26.22,9.24,20.82,9.24,20.82c0,0,9.24-4.64,9.24-20.82s-9.24-26.22-9.24-26.22Z"/>
    <path class="st1" d="M234.31,441.56c-4.84-4.62-9.19-6.48-9.19-6.48,0,0-1.38,3.94-1.59,9.95,2.69,1.12,5.62,2.67,8.56,4.82.51-3.07,1.31-5.84,2.22-8.29Z"/>
    <path class="st1" d="M263.05,445.03c-.21-6-1.59-9.94-1.59-9.94,0,0-4.35,1.86-9.2,6.48.91,2.44,1.7,5.22,2.22,8.28,2.94-2.15,5.87-3.71,8.56-4.82h0Z"/>
  </g>
  <g class="st0">
    <path class="st1" d="M213.15,562.26c-7.69.49-12.82,3.18-12.82,3.18,0,0,6.42,12.2,21.19,17.01,7.64,2.49,13.2,1.58,16.78.14-4.47-.28-10.81-2.2-17.46-9.17-3.48-3.64-5.95-7.51-7.7-11.16h0Z"/>
    <path class="st1" d="M231.47,558.58c0-1.52.08-3,.22-4.41-9.92-7.82-20.21-8.03-20.21-8.03,0,0,.26,13.93,11.19,25.37,6.76,7.07,13.03,8.42,16.84,8.41-3.17-2.83-8.04-9.16-8.04-21.34h0Z"/>
    <path class="st1" d="M273.42,562.26c-1.75,3.64-4.22,7.51-7.7,11.16-6.66,6.96-12.99,8.89-17.46,9.17,3.58,1.45,9.14,2.35,16.78-.14,14.77-4.8,21.19-17.01,21.19-17.01,0,0-5.12-2.69-12.82-3.18h.01Z"/>
    <path class="st1" d="M275.09,546.14s-10.29.21-20.21,8.03c.14,1.42.22,2.89.22,4.41,0,12.18-4.87,18.51-8.04,21.34,3.81,0,10.08-1.34,16.84-8.41,10.94-11.44,11.19-25.37,11.19-25.37h0Z"/>
    <path class="st1" d="M243.29,532.37s-9.24,10.04-9.24,26.22,9.24,20.82,9.24,20.82c0,0,9.24-4.64,9.24-20.82s-9.24-26.22-9.24-26.22Z"/>
    <path class="st1" d="M234.31,542.85c-4.84-4.62-9.19-6.48-9.19-6.48,0,0-1.38,3.94-1.59,9.95,2.69,1.12,5.62,2.67,8.56,4.82.51-3.07,1.31-5.84,2.22-8.29h0Z"/>
    <path class="st1" d="M263.05,546.32c-.21-6-1.59-9.94-1.59-9.94,0,0-4.35,1.86-9.2,6.48.91,2.44,1.7,5.22,2.22,8.28,2.94-2.15,5.87-3.71,8.56-4.82h0Z"/>
  </g>
  <g class="st0">
    <path class="st1" d="M362.18,55.79c-7.69.49-12.82,3.18-12.82,3.18,0,0,6.42,12.2,21.19,17.01,7.64,2.49,13.2,1.58,16.78.14-4.47-.28-10.81-2.2-17.46-9.17-3.48-3.64-5.95-7.51-7.7-11.16,0,0,.01,0,.01,0Z"/>
    <path class="st1" d="M380.5,52.11c0-1.52.08-3,.22-4.41-9.92-7.82-20.21-8.03-20.21-8.03,0,0,.26,13.93,11.19,25.37,6.76,7.07,13.03,8.42,16.84,8.41-3.17-2.83-8.04-9.16-8.04-21.34Z"/>
    <path class="st1" d="M422.45,55.79c-1.75,3.64-4.22,7.51-7.7,11.16-6.66,6.96-12.99,8.89-17.46,9.17,3.58,1.45,9.14,2.35,16.78-.14,14.77-4.8,21.19-17.01,21.19-17.01,0,0-5.12-2.69-12.82-3.18h.01Z"/>
    <path class="st1" d="M424.12,39.67s-10.29.21-20.21,8.03c.14,1.42.22,2.89.22,4.41,0,12.18-4.87,18.51-8.04,21.34,3.81,0,10.08-1.34,16.84-8.41,10.94-11.44,11.19-25.37,11.19-25.37Z"/>
    <path class="st1" d="M392.32,25.89s-9.24,10.04-9.24,26.22,9.24,20.82,9.24,20.82c0,0,9.24-4.64,9.24-20.82s-9.24-26.22-9.24-26.22Z"/>
    <path class="st1" d="M383.34,36.38c-4.84-4.62-9.19-6.48-9.19-6.48,0,0-1.38,3.94-1.59,9.95,2.69,1.12,5.62,2.67,8.56,4.82.51-3.07,1.31-5.84,2.22-8.29Z"/>
    <path class="st1" d="M412.08,39.84c-.21-6-1.59-9.94-1.59-9.94,0,0-4.35,1.86-9.2,6.48.91,2.44,1.7,5.22,2.22,8.28,2.94-2.15,5.87-3.71,8.56-4.82,0,0,.01,0,.01,0Z"/>
  </g>
  <g class="st0">
    <path class="st1" d="M362.18,157.09c-7.69.49-12.82,3.18-12.82,3.18,0,0,6.42,12.2,21.19,17.01,7.64,2.49,13.2,1.58,16.78.14-4.47-.28-10.81-2.2-17.46-9.17-3.48-3.64-5.95-7.51-7.7-11.16h.01Z"/>
    <path class="st1" d="M380.5,153.41c0-1.52.08-3,.22-4.41-9.92-7.82-20.21-8.03-20.21-8.03,0,0,.26,13.93,11.19,25.37,6.76,7.07,13.03,8.42,16.84,8.41-3.17-2.83-8.04-9.16-8.04-21.34Z"/>
    <path class="st1" d="M422.45,157.09c-1.75,3.64-4.22,7.51-7.7,11.16-6.66,6.96-12.99,8.89-17.46,9.17,3.58,1.45,9.14,2.35,16.78-.14,14.77-4.8,21.19-17.01,21.19-17.01,0,0-5.12-2.69-12.82-3.18h.01Z"/>
    <path class="st1" d="M424.12,140.97s-10.29.21-20.21,8.03c.14,1.42.22,2.89.22,4.41,0,12.18-4.87,18.51-8.04,21.34,3.81,0,10.08-1.34,16.84-8.41,10.94-11.44,11.19-25.37,11.19-25.37Z"/>
    <path class="st1" d="M392.32,127.19s-9.24,10.04-9.24,26.22,9.24,20.82,9.24,20.82c0,0,9.24-4.64,9.24-20.82s-9.24-26.22-9.24-26.22Z"/>
    <path class="st1" d="M383.34,137.68c-4.84-4.62-9.19-6.48-9.19-6.48,0,0-1.38,3.94-1.59,9.95,2.69,1.12,5.62,2.67,8.56,4.82.51-3.07,1.31-5.84,2.22-8.29h0Z"/>
    <path class="st1" d="M412.08,141.15c-.21-6-1.59-9.94-1.59-9.94,0,0-4.35,1.86-9.2,6.48.91,2.44,1.7,5.22,2.22,8.28,2.94-2.15,5.87-3.71,8.56-4.82h.01Z"/>
  </g>
  <g class="st0">
    <path class="st1" d="M362.18,258.38c-7.69.49-12.82,3.18-12.82,3.18,0,0,6.42,12.2,21.19,17.01,7.64,2.49,13.2,1.58,16.78.14-4.47-.28-10.81-2.2-17.46-9.17-3.48-3.64-5.95-7.51-7.7-11.16h.01Z"/>
    <path class="st1" d="M380.5,254.7c0-1.52.08-3,.22-4.41-9.92-7.82-20.21-8.03-20.21-8.03,0,0,.26,13.93,11.19,25.37,6.76,7.07,13.03,8.42,16.84,8.41-3.17-2.83-8.04-9.16-8.04-21.34Z"/>
    <path class="st1" d="M422.45,258.38c-1.75,3.64-4.22,7.51-7.7,11.16-6.66,6.96-12.99,8.89-17.46,9.17,3.58,1.45,9.14,2.35,16.78-.14,14.77-4.8,21.19-17.01,21.19-17.01,0,0-5.12-2.69-12.82-3.18h.01Z"/>
    <path class="st1" d="M424.12,242.27s-10.29.21-20.21,8.03c.14,1.42.22,2.89.22,4.41,0,12.18-4.87,18.51-8.04,21.34,3.81,0,10.08-1.34,16.84-8.41,10.94-11.44,11.19-25.37,11.19-25.37Z"/>
    <path class="st1" d="M392.32,228.49s-9.24,10.04-9.24,26.22,9.24,20.82,9.24,20.82c0,0,9.24-4.64,9.24-20.82s-9.24-26.22-9.24-26.22h0Z"/>
    <path class="st1" d="M383.34,238.98c-4.84-4.62-9.19-6.48-9.19-6.48,0,0-1.38,3.94-1.59,9.95,2.69,1.12,5.62,2.67,8.56,4.82.51-3.07,1.31-5.84,2.22-8.29h0Z"/>
    <path class="st1" d="M412.08,242.44c-.21-6-1.59-9.94-1.59-9.94,0,0-4.35,1.86-9.2,6.48.91,2.44,1.7,5.22,2.22,8.28,2.94-2.15,5.87-3.71,8.56-4.82h.01Z"/>
  </g>
  <g class="st0">
    <path class="st1" d="M362.18,359.67c-7.69.49-12.82,3.18-12.82,3.18,0,0,6.42,12.2,21.19,17.01,7.64,2.49,13.2,1.58,16.78.14-4.47-.28-10.81-2.2-17.46-9.17-3.48-3.64-5.95-7.51-7.7-11.16h.01Z"/>
    <path class="st1" d="M380.5,355.99c0-1.52.08-3,.22-4.41-9.92-7.82-20.21-8.03-20.21-8.03,0,0,.26,13.93,11.19,25.37,6.76,7.07,13.03,8.42,16.84,8.41-3.17-2.83-8.04-9.16-8.04-21.34Z"/>
    <path class="st1" d="M422.45,359.67c-1.75,3.64-4.22,7.51-7.7,11.16-6.66,6.96-12.99,8.89-17.46,9.17,3.58,1.45,9.14,2.35,16.78-.14,14.77-4.8,21.19-17.01,21.19-17.01,0,0-5.12-2.69-12.82-3.18h.01Z"/>
    <path class="st1" d="M424.12,343.55s-10.29.21-20.21,8.03c.14,1.42.22,2.89.22,4.41,0,12.18-4.87,18.51-8.04,21.34,3.81,0,10.08-1.34,16.84-8.41,10.94-11.44,11.19-25.37,11.19-25.37Z"/>
    <path class="st1" d="M392.32,329.77s-9.24,10.04-9.24,26.22,9.24,20.82,9.24,20.82c0,0,9.24-4.64,9.24-20.82s-9.24-26.22-9.24-26.22Z"/>
    <path class="st1" d="M383.34,340.26c-4.84-4.62-9.19-6.48-9.19-6.48,0,0-1.38,3.94-1.59,9.95,2.69,1.12,5.62,2.67,8.56,4.82.51-3.07,1.31-5.84,2.22-8.29Z"/>
    <path class="st1" d="M412.08,343.72c-.21-6-1.59-9.94-1.59-9.94,0,0-4.35,1.86-9.2,6.48.91,2.44,1.7,5.22,2.22,8.28,2.94-2.15,5.87-3.71,8.56-4.82h.01Z"/>
  </g>
  <g class="st0">
    <path class="st1" d="M362.18,460.97c-7.69.49-12.82,3.18-12.82,3.18,0,0,6.42,12.2,21.19,17.01,7.64,2.49,13.2,1.58,16.78.14-4.47-.28-10.81-2.2-17.46-9.17-3.48-3.64-5.95-7.51-7.7-11.16h.01Z"/>
    <path class="st1" d="M380.5,457.29c0-1.52.08-3,.22-4.41-9.92-7.82-20.21-8.03-20.21-8.03,0,0,.26,13.93,11.19,25.37,6.76,7.07,13.03,8.42,16.84,8.41-3.17-2.83-8.04-9.16-8.04-21.34Z"/>
    <path class="st1" d="M422.45,460.97c-1.75,3.64-4.22,7.51-7.7,11.16-6.66,6.96-12.99,8.89-17.46,9.17,3.58,1.45,9.14,2.35,16.78-.14,14.77-4.8,21.19-17.01,21.19-17.01,0,0-5.12-2.69-12.82-3.18h.01Z"/>
    <path class="st1" d="M424.12,444.85s-10.29.21-20.21,8.03c.14,1.42.22,2.89.22,4.41,0,12.18-4.87,18.51-8.04,21.34,3.81,0,10.08-1.34,16.84-8.41,10.94-11.44,11.19-25.37,11.19-25.37Z"/>
    <path class="st1" d="M392.32,431.07s-9.24,10.04-9.24,26.22,9.24,20.82,9.24,20.82c0,0,9.24-4.64,9.24-20.82s-9.24-26.22-9.24-26.22Z"/>
    <path class="st1" d="M383.34,441.56c-4.84-4.62-9.19-6.48-9.19-6.48,0,0-1.38,3.94-1.59,9.95,2.69,1.12,5.62,2.67,8.56,4.82.51-3.07,1.31-5.84,2.22-8.29Z"/>
    <path class="st1" d="M412.08,445.03c-.21-6-1.59-9.94-1.59-9.94,0,0-4.35,1.86-9.2,6.48.91,2.44,1.7,5.22,2.22,8.28,2.94-2.15,5.87-3.71,8.56-4.82h.01Z"/>
  </g>
  <g class="st0">
    <path class="st1" d="M362.18,562.26c-7.69.49-12.82,3.18-12.82,3.18,0,0,6.42,12.2,21.19,17.01,7.64,2.49,13.2,1.58,16.78.14-4.47-.28-10.81-2.2-17.46-9.17-3.48-3.64-5.95-7.51-7.7-11.16h.01Z"/>
    <path class="st1" d="M380.5,558.58c0-1.52.08-3,.22-4.41-9.92-7.82-20.21-8.03-20.21-8.03,0,0,.26,13.93,11.19,25.37,6.76,7.07,13.03,8.42,16.84,8.41-3.17-2.83-8.04-9.16-8.04-21.34h0Z"/>
    <path class="st1" d="M422.45,562.26c-1.75,3.64-4.22,7.51-7.7,11.16-6.66,6.96-12.99,8.89-17.46,9.17,3.58,1.45,9.14,2.35,16.78-.14,14.77-4.8,21.19-17.01,21.19-17.01,0,0-5.12-2.69-12.82-3.18h.01Z"/>
    <path class="st1" d="M424.12,546.15s-10.29.21-20.21,8.03c.14,1.42.22,2.89.22,4.41,0,12.18-4.87,18.51-8.04,21.34,3.81,0,10.08-1.34,16.84-8.41,10.94-11.44,11.19-25.37,11.19-25.37h0Z"/>
    <path class="st1" d="M392.32,532.37s-9.24,10.04-9.24,26.22,9.24,20.82,9.24,20.82c0,0,9.24-4.64,9.24-20.82s-9.24-26.22-9.24-26.22Z"/>
    <path class="st1" d="M383.34,542.86c-4.84-4.62-9.19-6.48-9.19-6.48,0,0-1.38,3.94-1.59,9.95,2.69,1.12,5.62,2.67,8.56,4.82.51-3.07,1.31-5.84,2.22-8.29h0Z"/>
    <path class="st1" d="M412.08,546.32c-.21-6-1.59-9.94-1.59-9.94,0,0-4.35,1.86-9.2,6.48.91,2.44,1.7,5.22,2.22,8.28,2.94-2.15,5.87-3.71,8.56-4.82h.01Z"/>
  </g>
  <g class="st0">
    <path class="st1" d="M511.22,55.79c-7.69.49-12.82,3.18-12.82,3.18,0,0,6.42,12.2,21.19,17.01,7.64,2.49,13.2,1.58,16.78.14-4.47-.28-10.81-2.2-17.46-9.17-3.48-3.64-5.95-7.51-7.7-11.16h.01Z"/>
    <path class="st1" d="M529.54,52.11c0-1.52.08-3,.22-4.41-9.92-7.82-20.21-8.03-20.21-8.03,0,0,.26,13.93,11.19,25.37,6.76,7.07,13.03,8.42,16.84,8.41-3.17-2.83-8.04-9.16-8.04-21.34Z"/>
    <path class="st1" d="M571.48,55.79c-1.75,3.64-4.22,7.51-7.7,11.16-6.66,6.96-12.99,8.89-17.46,9.17,3.58,1.45,9.14,2.35,16.78-.14,14.77-4.8,21.19-17.01,21.19-17.01,0,0-5.12-2.69-12.82-3.18h.01Z"/>
    <path class="st1" d="M573.15,39.67s-10.29.21-20.21,8.03c.14,1.42.22,2.89.22,4.41,0,12.18-4.87,18.51-8.04,21.34,3.81,0,10.08-1.34,16.84-8.41,10.94-11.44,11.19-25.37,11.19-25.37Z"/>
    <path class="st1" d="M541.35,25.89s-9.24,10.04-9.24,26.22,9.24,20.82,9.24,20.82c0,0,9.24-4.64,9.24-20.82s-9.24-26.22-9.24-26.22Z"/>
    <path class="st1" d="M532.37,36.38c-4.84-4.62-9.19-6.48-9.19-6.48,0,0-1.38,3.94-1.59,9.95,2.69,1.12,5.62,2.67,8.56,4.82.51-3.07,1.31-5.84,2.22-8.29h0Z"/>
    <path class="st1" d="M561.11,39.85c-.21-6-1.59-9.94-1.59-9.94,0,0-4.35,1.86-9.2,6.48.91,2.44,1.7,5.22,2.22,8.28,2.94-2.15,5.87-3.71,8.56-4.82h.01Z"/>
  </g>
  <g class="st0">
    <path class="st1" d="M511.22,157.09c-7.69.49-12.82,3.18-12.82,3.18,0,0,6.42,12.2,21.19,17.01,7.64,2.49,13.2,1.58,16.78.14-4.47-.28-10.81-2.2-17.46-9.17-3.48-3.64-5.95-7.51-7.7-11.16h.01Z"/>
    <path class="st1" d="M529.54,153.41c0-1.52.08-3,.22-4.41-9.92-7.82-20.21-8.03-20.21-8.03,0,0,.26,13.93,11.19,25.37,6.76,7.07,13.03,8.42,16.84,8.41-3.17-2.83-8.04-9.16-8.04-21.34Z"/>
    <path class="st1" d="M571.48,157.09c-1.75,3.64-4.22,7.51-7.7,11.16-6.66,6.96-12.99,8.89-17.46,9.17,3.58,1.45,9.14,2.35,16.78-.14,14.77-4.8,21.19-17.01,21.19-17.01,0,0-5.12-2.69-12.82-3.18h.01Z"/>
    <path class="st1" d="M573.15,140.97s-10.29.21-20.21,8.03c.14,1.42.22,2.89.22,4.41,0,12.18-4.87,18.51-8.04,21.34,3.81,0,10.08-1.34,16.84-8.41,10.94-11.44,11.19-25.37,11.19-25.37Z"/>
    <path class="st1" d="M541.35,127.2s-9.24,10.04-9.24,26.22,9.24,20.82,9.24,20.82c0,0,9.24-4.64,9.24-20.82s-9.24-26.22-9.24-26.22Z"/>
    <path class="st1" d="M532.37,137.68c-4.84-4.62-9.19-6.48-9.19-6.48,0,0-1.38,3.94-1.59,9.95,2.69,1.12,5.62,2.67,8.56,4.82.51-3.07,1.31-5.84,2.22-8.29h0Z"/>
    <path class="st1" d="M561.11,141.15c-.21-6-1.59-9.94-1.59-9.94,0,0-4.35,1.86-9.2,6.48.91,2.44,1.7,5.22,2.22,8.28,2.94-2.15,5.87-3.71,8.56-4.82h.01Z"/>
  </g>
  <g class="st0">
    <path class="st1" d="M511.22,258.38c-7.69.49-12.82,3.18-12.82,3.18,0,0,6.42,12.2,21.19,17.01,7.64,2.49,13.2,1.58,16.78.14-4.47-.28-10.81-2.2-17.46-9.17-3.48-3.64-5.95-7.51-7.7-11.16h.01Z"/>
    <path class="st1" d="M529.54,254.71c0-1.52.08-3,.22-4.41-9.92-7.82-20.21-8.03-20.21-8.03,0,0,.26,13.93,11.19,25.37,6.76,7.07,13.03,8.42,16.84,8.41-3.17-2.83-8.04-9.16-8.04-21.34Z"/>
    <path class="st1" d="M571.48,258.38c-1.75,3.64-4.22,7.51-7.7,11.16-6.66,6.96-12.99,8.89-17.46,9.17,3.58,1.45,9.14,2.35,16.78-.14,14.77-4.8,21.19-17.01,21.19-17.01,0,0-5.12-2.69-12.82-3.18h.01Z"/>
    <path class="st1" d="M573.15,242.27s-10.29.21-20.21,8.03c.14,1.42.22,2.89.22,4.41,0,12.18-4.87,18.51-8.04,21.34,3.81,0,10.08-1.34,16.84-8.41,10.94-11.44,11.19-25.37,11.19-25.37Z"/>
    <path class="st1" d="M541.35,228.49s-9.24,10.04-9.24,26.22,9.24,20.82,9.24,20.82c0,0,9.24-4.64,9.24-20.82s-9.24-26.22-9.24-26.22Z"/>
    <path class="st1" d="M532.37,238.98c-4.84-4.62-9.19-6.48-9.19-6.48,0,0-1.38,3.94-1.59,9.95,2.69,1.12,5.62,2.67,8.56,4.82.51-3.07,1.31-5.84,2.22-8.29h0Z"/>
    <path class="st1" d="M561.11,242.44c-.21-6-1.59-9.94-1.59-9.94,0,0-4.35,1.86-9.2,6.48.91,2.44,1.7,5.22,2.22,8.28,2.94-2.15,5.87-3.71,8.56-4.82h.01Z"/>
  </g>
  <g class="st0">
    <path class="st1" d="M511.22,359.67c-7.69.49-12.82,3.18-12.82,3.18,0,0,6.42,12.2,21.19,17.01,7.64,2.49,13.2,1.58,16.78.14-4.47-.28-10.81-2.2-17.46-9.17-3.48-3.64-5.95-7.51-7.7-11.16h.01Z"/>
    <path class="st1" d="M529.54,355.99c0-1.52.08-3,.22-4.41-9.92-7.82-20.21-8.03-20.21-8.03,0,0,.26,13.93,11.19,25.37,6.76,7.07,13.03,8.42,16.84,8.41-3.17-2.83-8.04-9.16-8.04-21.34Z"/>
    <path class="st1" d="M571.48,359.67c-1.75,3.64-4.22,7.51-7.7,11.16-6.66,6.96-12.99,8.89-17.46,9.17,3.58,1.45,9.14,2.35,16.78-.14,14.77-4.8,21.19-17.01,21.19-17.01,0,0-5.12-2.69-12.82-3.18h.01Z"/>
    <path class="st1" d="M573.15,343.55s-10.29.21-20.21,8.03c.14,1.42.22,2.89.22,4.41,0,12.18-4.87,18.51-8.04,21.34,3.81,0,10.08-1.34,16.84-8.41,10.94-11.44,11.19-25.37,11.19-25.37Z"/>
    <path class="st1" d="M541.35,329.77s-9.24,10.04-9.24,26.22,9.24,20.82,9.24,20.82c0,0,9.24-4.64,9.24-20.82s-9.24-26.22-9.24-26.22Z"/>
    <path class="st1" d="M532.37,340.26c-4.84-4.62-9.19-6.48-9.19-6.48,0,0-1.38,3.94-1.59,9.95,2.69,1.12,5.62,2.67,8.56,4.82.51-3.07,1.31-5.84,2.22-8.29h0Z"/>
    <path class="st1" d="M561.11,343.73c-.21-6-1.59-9.94-1.59-9.94,0,0-4.35,1.86-9.2,6.48.91,2.44,1.7,5.22,2.22,8.28,2.94-2.15,5.87-3.71,8.56-4.82h.01Z"/>
  </g>
  <g class="st0">
    <path class="st1" d="M511.22,460.97c-7.69.49-12.82,3.18-12.82,3.18,0,0,6.42,12.2,21.19,17.01,7.64,2.49,13.2,1.58,16.78.14-4.47-.28-10.81-2.2-17.46-9.17-3.48-3.64-5.95-7.51-7.7-11.16h.01Z"/>
    <path class="st1" d="M529.54,457.29c0-1.52.08-3,.22-4.41-9.92-7.82-20.21-8.03-20.21-8.03,0,0,.26,13.93,11.19,25.37,6.76,7.07,13.03,8.42,16.84,8.41-3.17-2.83-8.04-9.16-8.04-21.34Z"/>
    <path class="st1" d="M571.48,460.97c-1.75,3.64-4.22,7.51-7.7,11.16-6.66,6.96-12.99,8.89-17.46,9.17,3.58,1.45,9.14,2.35,16.78-.14,14.77-4.8,21.19-17.01,21.19-17.01,0,0-5.12-2.69-12.82-3.18h.01Z"/>
    <path class="st1" d="M573.15,444.85s-10.29.21-20.21,8.03c.14,1.42.22,2.89.22,4.41,0,12.18-4.87,18.51-8.04,21.34,3.81,0,10.08-1.34,16.84-8.41,10.94-11.44,11.19-25.37,11.19-25.37Z"/>
    <path class="st1" d="M541.35,431.08s-9.24,10.04-9.24,26.22,9.24,20.82,9.24,20.82c0,0,9.24-4.64,9.24-20.82s-9.24-26.22-9.24-26.22Z"/>
    <path class="st1" d="M532.37,441.56c-4.84-4.62-9.19-6.48-9.19-6.48,0,0-1.38,3.94-1.59,9.95,2.69,1.12,5.62,2.67,8.56,4.82.51-3.07,1.31-5.84,2.22-8.29h0Z"/>
    <path class="st1" d="M561.11,445.03c-.21-6-1.59-9.94-1.59-9.94,0,0-4.35,1.86-9.2,6.48.91,2.44,1.7,5.22,2.22,8.28,2.94-2.15,5.87-3.71,8.56-4.82h.01Z"/>
  </g>
  <g class="st0">
    <path class="st1" d="M511.22,562.26c-7.69.49-12.82,3.18-12.82,3.18,0,0,6.42,12.2,21.19,17.01,7.64,2.49,13.2,1.58,16.78.14-4.47-.28-10.81-2.2-17.46-9.17-3.48-3.64-5.95-7.51-7.7-11.16h.01Z"/>
    <path class="st1" d="M529.54,558.59c0-1.52.08-3,.22-4.41-9.92-7.82-20.21-8.03-20.21-8.03,0,0,.26,13.93,11.19,25.37,6.76,7.07,13.03,8.42,16.84,8.41-3.17-2.83-8.04-9.16-8.04-21.34h0Z"/>
    <path class="st1" d="M571.48,562.26c-1.75,3.64-4.22,7.51-7.7,11.16-6.66,6.96-12.99,8.89-17.46,9.17,3.58,1.45,9.14,2.35,16.78-.14,14.77-4.8,21.19-17.01,21.19-17.01,0,0-5.12-2.69-12.82-3.18h.01Z"/>
    <path class="st1" d="M573.15,546.15s-10.29.21-20.21,8.03c.14,1.42.22,2.89.22,4.41,0,12.18-4.87,18.51-8.04,21.34,3.81,0,10.08-1.34,16.84-8.41,10.94-11.44,11.19-25.37,11.19-25.37h0Z"/>
    <path class="st1" d="M541.35,532.37s-9.24,10.04-9.24,26.22,9.24,20.82,9.24,20.82c0,0,9.24-4.64,9.24-20.82s-9.24-26.22-9.24-26.22Z"/>
    <path class="st1" d="M532.37,542.86c-4.84-4.62-9.19-6.48-9.19-6.48,0,0-1.38,3.94-1.59,9.95,2.69,1.12,5.62,2.67,8.56,4.82.51-3.07,1.31-5.84,2.22-8.29h0Z"/>
    <path class="st1" d="M561.11,546.32c-.21-6-1.59-9.94-1.59-9.94,0,0-4.35,1.86-9.2,6.48.91,2.44,1.7,5.22,2.22,8.28,2.94-2.15,5.87-3.71,8.56-4.82h.01Z"/>
  </g>
  <g class="st0">
    <path class="st1" d="M660.25,55.79c-7.69.49-12.82,3.18-12.82,3.18,0,0,6.42,12.2,21.19,17.01,7.64,2.49,13.2,1.58,16.78.14-4.47-.28-10.81-2.2-17.46-9.17-3.48-3.64-5.95-7.51-7.7-11.16,0,0,.01,0,.01,0Z"/>
    <path class="st1" d="M678.57,52.11c0-1.52.08-3,.22-4.41-9.92-7.82-20.21-8.03-20.21-8.03,0,0,.26,13.93,11.19,25.37,6.76,7.07,13.03,8.42,16.84,8.41-3.17-2.83-8.04-9.16-8.04-21.34Z"/>
    <path class="st1" d="M720.52,55.79c-1.75,3.64-4.22,7.51-7.7,11.16-6.66,6.96-12.99,8.89-17.46,9.17,3.58,1.45,9.14,2.35,16.78-.14,14.77-4.8,21.19-17.01,21.19-17.01,0,0-5.12-2.69-12.82-3.18h.01Z"/>
    <path class="st1" d="M722.19,39.67s-10.29.21-20.21,8.03c.14,1.42.22,2.89.22,4.41,0,12.18-4.87,18.51-8.04,21.34,3.81,0,10.08-1.34,16.84-8.41,10.94-11.44,11.19-25.37,11.19-25.37Z"/>
    <path class="st1" d="M690.38,25.89s-9.24,10.04-9.24,26.22,9.24,20.82,9.24,20.82c0,0,9.24-4.64,9.24-20.82s-9.24-26.22-9.24-26.22Z"/>
    <path class="st1" d="M681.4,36.38c-4.84-4.62-9.19-6.48-9.19-6.48,0,0-1.38,3.94-1.59,9.95,2.69,1.12,5.62,2.67,8.56,4.82.51-3.07,1.31-5.84,2.22-8.29h0Z"/>
    <path class="st1" d="M710.14,39.85c-.21-6-1.59-9.94-1.59-9.94,0,0-4.35,1.86-9.2,6.48.91,2.44,1.7,5.22,2.22,8.28,2.94-2.15,5.87-3.71,8.56-4.82h.01Z"/>
  </g>
  <g class="st0">
    <path class="st1" d="M660.25,157.09c-7.69.49-12.82,3.18-12.82,3.18,0,0,6.42,12.2,21.19,17.01,7.64,2.49,13.2,1.58,16.78.14-4.47-.28-10.81-2.2-17.46-9.17-3.48-3.64-5.95-7.51-7.7-11.16h.01Z"/>
    <path class="st1" d="M678.57,153.41c0-1.52.08-3,.22-4.41-9.92-7.82-20.21-8.03-20.21-8.03,0,0,.26,13.93,11.19,25.37,6.76,7.07,13.03,8.42,16.84,8.41-3.17-2.83-8.04-9.16-8.04-21.34Z"/>
    <path class="st1" d="M720.52,157.09c-1.75,3.64-4.22,7.51-7.7,11.16-6.66,6.96-12.99,8.89-17.46,9.17,3.58,1.45,9.14,2.35,16.78-.14,14.77-4.8,21.19-17.01,21.19-17.01,0,0-5.12-2.69-12.82-3.18h.01Z"/>
    <path class="st1" d="M722.19,140.97s-10.29.21-20.21,8.03c.14,1.42.22,2.89.22,4.41,0,12.18-4.87,18.51-8.04,21.34,3.81,0,10.08-1.34,16.84-8.41,10.94-11.44,11.19-25.37,11.19-25.37Z"/>
    <path class="st1" d="M690.38,127.2s-9.24,10.04-9.24,26.22,9.24,20.82,9.24,20.82c0,0,9.24-4.64,9.24-20.82s-9.24-26.22-9.24-26.22h0Z"/>
    <path class="st1" d="M681.4,137.68c-4.84-4.62-9.19-6.48-9.19-6.48,0,0-1.38,3.94-1.59,9.95,2.69,1.12,5.62,2.67,8.56,4.82.51-3.07,1.31-5.84,2.22-8.29h0Z"/>
    <path class="st1" d="M710.14,141.15c-.21-6-1.59-9.94-1.59-9.94,0,0-4.35,1.86-9.2,6.48.91,2.44,1.7,5.22,2.22,8.28,2.94-2.15,5.87-3.71,8.56-4.82h.01Z"/>
  </g>
  <g class="st0">
    <path class="st1" d="M660.25,258.38c-7.69.49-12.82,3.18-12.82,3.18,0,0,6.42,12.2,21.19,17.01,7.64,2.49,13.2,1.58,16.78.14-4.47-.28-10.81-2.2-17.46-9.17-3.48-3.64-5.95-7.51-7.7-11.16h.01Z"/>
    <path class="st1" d="M678.57,254.7c0-1.52.08-3,.22-4.41-9.92-7.82-20.21-8.03-20.21-8.03,0,0,.26,13.93,11.19,25.37,6.76,7.07,13.03,8.42,16.84,8.41-3.17-2.83-8.04-9.16-8.04-21.34Z"/>
    <path class="st1" d="M720.52,258.38c-1.75,3.64-4.22,7.51-7.7,11.16-6.66,6.96-12.99,8.89-17.46,9.17,3.58,1.45,9.14,2.35,16.78-.14,14.77-4.8,21.19-17.01,21.19-17.01,0,0-5.12-2.69-12.82-3.18h.01Z"/>
    <path class="st1" d="M722.19,242.26s-10.29.21-20.21,8.03c.14,1.42.22,2.89.22,4.41,0,12.18-4.87,18.51-8.04,21.34,3.81,0,10.08-1.34,16.84-8.41,10.94-11.44,11.19-25.37,11.19-25.37Z"/>
    <path class="st1" d="M690.38,228.48s-9.24,10.04-9.24,26.22,9.24,20.82,9.24,20.82c0,0,9.24-4.64,9.24-20.82s-9.24-26.22-9.24-26.22Z"/>
    <path class="st1" d="M681.4,238.97c-4.84-4.62-9.19-6.48-9.19-6.48,0,0-1.38,3.94-1.59,9.95,2.69,1.12,5.62,2.67,8.56,4.82.51-3.07,1.31-5.84,2.22-8.29h0Z"/>
    <path class="st1" d="M710.14,242.43c-.21-6-1.59-9.94-1.59-9.94,0,0-4.35,1.86-9.2,6.48.91,2.44,1.7,5.22,2.22,8.28,2.94-2.15,5.87-3.71,8.56-4.82h.01Z"/>
  </g>
  <g class="st0">
    <path class="st1" d="M660.25,359.67c-7.69.49-12.82,3.18-12.82,3.18,0,0,6.42,12.2,21.19,17.01,7.64,2.49,13.2,1.58,16.78.14-4.47-.28-10.81-2.2-17.46-9.17-3.48-3.64-5.95-7.51-7.7-11.16h.01Z"/>
    <path class="st1" d="M678.57,355.99c0-1.52.08-3,.22-4.41-9.92-7.82-20.21-8.03-20.21-8.03,0,0,.26,13.93,11.19,25.37,6.76,7.07,13.03,8.42,16.84,8.41-3.17-2.83-8.04-9.16-8.04-21.34Z"/>
    <path class="st1" d="M720.52,359.67c-1.75,3.64-4.22,7.51-7.7,11.16-6.66,6.96-12.99,8.89-17.46,9.17,3.58,1.45,9.14,2.35,16.78-.14,14.77-4.8,21.19-17.01,21.19-17.01,0,0-5.12-2.69-12.82-3.18h.01Z"/>
    <path class="st1" d="M722.19,343.55s-10.29.21-20.21,8.03c.14,1.42.22,2.89.22,4.41,0,12.18-4.87,18.51-8.04,21.34,3.81,0,10.08-1.34,16.84-8.41,10.94-11.44,11.19-25.37,11.19-25.37Z"/>
    <path class="st1" d="M690.38,329.77s-9.24,10.04-9.24,26.22,9.24,20.82,9.24,20.82c0,0,9.24-4.64,9.24-20.82s-9.24-26.22-9.24-26.22Z"/>
    <path class="st1" d="M681.4,340.26c-4.84-4.62-9.19-6.48-9.19-6.48,0,0-1.38,3.94-1.59,9.95,2.69,1.12,5.62,2.67,8.56,4.82.51-3.07,1.31-5.84,2.22-8.29h0Z"/>
    <path class="st1" d="M710.14,343.73c-.21-6-1.59-9.94-1.59-9.94,0,0-4.35,1.86-9.2,6.48.91,2.44,1.7,5.22,2.22,8.28,2.94-2.15,5.87-3.71,8.56-4.82h.01Z"/>
  </g>
  <g class="st0">
    <path class="st1" d="M660.25,460.97c-7.69.49-12.82,3.18-12.82,3.18,0,0,6.42,12.2,21.19,17.01,7.64,2.49,13.2,1.58,16.78.14-4.47-.28-10.81-2.2-17.46-9.17-3.48-3.64-5.95-7.51-7.7-11.16h.01Z"/>
    <path class="st1" d="M678.57,457.29c0-1.52.08-3,.22-4.41-9.92-7.82-20.21-8.03-20.21-8.03,0,0,.26,13.93,11.19,25.37,6.76,7.07,13.03,8.42,16.84,8.41-3.17-2.83-8.04-9.16-8.04-21.34Z"/>
    <path class="st1" d="M720.52,460.97c-1.75,3.64-4.22,7.51-7.7,11.16-6.66,6.96-12.99,8.89-17.46,9.17,3.58,1.45,9.14,2.35,16.78-.14,14.77-4.8,21.19-17.01,21.19-17.01,0,0-5.12-2.69-12.82-3.18h.01Z"/>
    <path class="st1" d="M722.19,444.85s-10.29.21-20.21,8.03c.14,1.42.22,2.89.22,4.41,0,12.18-4.87,18.51-8.04,21.34,3.81,0,10.08-1.34,16.84-8.41,10.94-11.44,11.19-25.37,11.19-25.37Z"/>
    <path class="st1" d="M690.38,431.08s-9.24,10.04-9.24,26.22,9.24,20.82,9.24,20.82c0,0,9.24-4.64,9.24-20.82s-9.24-26.22-9.24-26.22Z"/>
    <path class="st1" d="M681.4,441.56c-4.84-4.62-9.19-6.48-9.19-6.48,0,0-1.38,3.94-1.59,9.95,2.69,1.12,5.62,2.67,8.56,4.82.51-3.07,1.31-5.84,2.22-8.29h0Z"/>
    <path class="st1" d="M710.14,445.03c-.21-6-1.59-9.94-1.59-9.94,0,0-4.35,1.86-9.2,6.48.91,2.44,1.7,5.22,2.22,8.28,2.94-2.15,5.87-3.71,8.56-4.82h.01Z"/>
  </g>
  <g class="st0">
    <path class="st1" d="M660.25,562.26c-7.69.49-12.82,3.18-12.82,3.18,0,0,6.42,12.2,21.19,17.01,7.64,2.49,13.2,1.58,16.78.14-4.47-.28-10.81-2.2-17.46-9.17-3.48-3.64-5.95-7.51-7.7-11.16h.01Z"/>
    <path class="st1" d="M678.57,558.58c0-1.52.08-3,.22-4.41-9.92-7.82-20.21-8.03-20.21-8.03,0,0,.26,13.93,11.19,25.37,6.76,7.07,13.03,8.42,16.84,8.41-3.17-2.83-8.04-9.16-8.04-21.34h0Z"/>
    <path class="st1" d="M720.52,562.26c-1.75,3.64-4.22,7.51-7.7,11.16-6.66,6.96-12.99,8.89-17.46,9.17,3.58,1.45,9.14,2.35,16.78-.14,14.77-4.8,21.19-17.01,21.19-17.01,0,0-5.12-2.69-12.82-3.18h.01Z"/>
    <path class="st1" d="M722.19,546.14s-10.29.21-20.21,8.03c.14,1.42.22,2.89.22,4.41,0,12.18-4.87,18.51-8.04,21.34,3.81,0,10.08-1.34,16.84-8.41,10.94-11.44,11.19-25.37,11.19-25.37h0Z"/>
    <path class="st1" d="M690.38,532.36s-9.24,10.04-9.24,26.22,9.24,20.82,9.24,20.82c0,0,9.24-4.64,9.24-20.82s-9.24-26.22-9.24-26.22Z"/>
    <path class="st1" d="M681.4,542.85c-4.84-4.62-9.19-6.48-9.19-6.48,0,0-1.38,3.94-1.59,9.95,2.69,1.12,5.62,2.67,8.56,4.82.51-3.07,1.31-5.84,2.22-8.29h0Z"/>
    <path class="st1" d="M710.14,546.31c-.21-6-1.59-9.94-1.59-9.94,0,0-4.35,1.86-9.2,6.48.91,2.44,1.7,5.22,2.22,8.28,2.94-2.15,5.87-3.71,8.56-4.82h.01Z"/>
  </g>
</svg>