<?xml version="1.0" encoding="UTF-8"?>
<svg id="Layer_1" xmlns="http://www.w3.org/2000/svg" version="1.1" viewBox="0 0 792 612">
  <!-- Generator: Adobe Illustrator 30.2.1, SVG Export Plug-In . SVG Version: 2.1.1 Build 1)  -->
  <defs>
    <style>
      .st0 {
        fill: #de9fb0;
      }

      .st1 {
        opacity: .14;
      }
    </style>
  </defs>
  <g>
    <g class="st1">
      <path class="st0" d="M64.12,55.79c-7.69.49-12.82,3.18-12.82,3.18,0,0,6.42,12.2,21.19,17.01,7.64,2.49,13.2,1.58,16.78.14-4.47-.28-10.81-2.2-17.46-9.17-3.48-3.64-5.95-7.51-7.7-11.16Z"/>
      <path class="st0" d="M82.44,52.11c0-1.52.08-3,.22-4.41-9.92-7.82-20.21-8.03-20.21-8.03,0,0,.26,13.93,11.19,25.37,6.76,7.07,13.03,8.42,16.84,8.41-3.17-2.83-8.04-9.16-8.04-21.34Z"/>
      <path class="st0" d="M124.39,55.79c-1.75,3.64-4.22,7.51-7.7,11.16-6.66,6.96-12.99,8.89-17.46,9.17,3.58,1.45,9.14,2.35,16.78-.14,14.77-4.8,21.19-17.01,21.19-17.01,0,0-5.12-2.69-12.82-3.18Z"/>
      <path class="st0" d="M126.06,39.68s-10.29.21-20.21,8.03c.14,1.42.22,2.89.22,4.41,0,12.18-4.87,18.51-8.04,21.34,3.81,0,10.08-1.34,16.84-8.41,10.94-11.44,11.19-25.37,11.19-25.37Z"/>
      <path class="st0" d="M94.25,25.9s-9.24,10.04-9.24,26.22,9.24,20.82,9.24,20.82c0,0,9.24-4.64,9.24-20.82s-9.24-26.22-9.24-26.22Z"/>
      <path class="st0" d="M85.28,36.39c-4.84-4.62-9.19-6.48-9.19-6.48,0,0-1.38,3.94-1.59,9.95,2.69,1.12,5.62,2.67,8.56,4.82.51-3.07,1.31-5.84,2.22-8.29Z"/>
      <path class="st0" d="M114.02,39.85c-.21-6-1.59-9.94-1.59-9.94,0,0-4.35,1.86-9.2,6.48.91,2.44,1.7,5.22,2.22,8.28,2.94-2.15,5.87-3.71,8.56-4.82Z"/>
    </g>
    <g class="st1">
      <path class="st0" d="M64.12,157.09c-7.69.49-12.82,3.18-12.82,3.18,0,0,6.42,12.2,21.19,17.01,7.64,2.49,13.2,1.58,16.78.14-4.47-.28-10.81-2.2-17.46-9.17-3.48-3.64-5.95-7.51-7.7-11.16Z"/>
      <path class="st0" d="M82.44,153.41c0-1.52.08-3,.22-4.41-9.92-7.82-20.21-8.03-20.21-8.03,0,0,.26,13.93,11.19,25.37,6.76,7.07,13.03,8.42,16.84,8.41-3.17-2.83-8.04-9.16-8.04-21.34Z"/>
      <path class="st0" d="M124.39,157.09c-1.75,3.64-4.22,7.51-7.7,11.16-6.66,6.96-12.99,8.89-17.46,9.17,3.58,1.45,9.14,2.35,16.78-.14,14.77-4.8,21.19-17.01,21.19-17.01,0,0-5.12-2.69-12.82-3.18Z"/>
      <path class="st0" d="M126.06,140.97s-10.29.21-20.21,8.03c.14,1.42.22,2.89.22,4.41,0,12.18-4.87,18.51-8.04,21.34,3.81,0,10.08-1.34,16.84-8.41,10.94-11.44,11.19-25.37,11.19-25.37Z"/>
      <path class="st0" d="M94.25,127.19s-9.24,10.04-9.24,26.22,9.24,20.82,9.24,20.82c0,0,9.24-4.64,9.24-20.82s-9.24-26.22-9.24-26.22Z"/>
      <path class="st0" d="M85.28,137.68c-4.84-4.62-9.19-6.48-9.19-6.48,0,0-1.38,3.94-1.59,9.95,2.69,1.12,5.62,2.67,8.56,4.82.51-3.07,1.31-5.84,2.22-8.29Z"/>
      <path class="st0" d="M114.02,141.14c-.21-6-1.59-9.94-1.59-9.94,0,0-4.35,1.86-9.2,6.48.91,2.44,1.7,5.22,2.22,8.28,2.94-2.15,5.87-3.71,8.56-4.82Z"/>
    </g>
    <g class="st1">
      <path class="st0" d="M64.12,258.38c-7.69.49-12.82,3.18-12.82,3.18,0,0,6.42,12.2,21.19,17.01,7.64,2.49,13.2,1.58,16.78.14-4.47-.28-10.81-2.2-17.46-9.17-3.48-3.64-5.95-7.51-7.7-11.16Z"/>
      <path class="st0" d="M82.44,254.7c0-1.52.08-3,.22-4.41-9.92-7.82-20.21-8.03-20.21-8.03,0,0,.26,13.93,11.19,25.37,6.76,7.07,13.03,8.42,16.84,8.41-3.17-2.83-8.04-9.16-8.04-21.34Z"/>
      <path class="st0" d="M124.39,258.38c-1.75,3.64-4.22,7.51-7.7,11.16-6.66,6.96-12.99,8.89-17.46,9.17,3.58,1.45,9.14,2.35,16.78-.14,14.77-4.8,21.19-17.01,21.19-17.01,0,0-5.12-2.69-12.82-3.18Z"/>
      <path class="st0" d="M126.06,242.26s-10.29.21-20.21,8.03c.14,1.42.22,2.89.22,4.41,0,12.18-4.87,18.51-8.04,21.34,3.81,0,10.08-1.34,16.84-8.41,10.94-11.44,11.19-25.37,11.19-25.37Z"/>
      <path class="st0" d="M94.25,228.48s-9.24,10.04-9.24,26.22,9.24,20.82,9.24,20.82c0,0,9.24-4.64,9.24-20.82s-9.24-26.22-9.24-26.22Z"/>
      <path class="st0" d="M85.28,238.97c-4.84-4.62-9.19-6.48-9.19-6.48,0,0-1.38,3.94-1.59,9.95,2.69,1.12,5.62,2.67,8.56,4.82.51-3.07,1.31-5.84,2.22-8.29Z"/>
      <path class="st0" d="M114.02,242.44c-.21-6-1.59-9.94-1.59-9.94,0,0-4.35,1.86-9.2,6.48.91,2.44,1.7,5.22,2.22,8.28,2.94-2.15,5.87-3.71,8.56-4.82Z"/>
    </g>
    <g class="st1">
      <path class="st0" d="M64.12,359.67c-7.69.49-12.82,3.18-12.82,3.18,0,0,6.42,12.2,21.19,17.01,7.64,2.49,13.2,1.58,16.78.14-4.47-.28-10.81-2.2-17.46-9.17-3.48-3.64-5.95-7.51-7.7-11.16Z"/>
      <path class="st0" d="M82.44,355.99c0-1.52.08-3,.22-4.41-9.92-7.82-20.21-8.03-20.21-8.03,0,0,.26,13.93,11.19,25.37,6.76,7.07,13.03,8.42,16.84,8.41-3.17-2.83-8.04-9.16-8.04-21.34Z"/>
      <path class="st0" d="M124.39,359.67c-1.75,3.64-4.22,7.51-7.7,11.16-6.66,6.96-12.99,8.89-17.46,9.17,3.58,1.45,9.14,2.35,16.78-.14,14.77-4.8,21.19-17.01,21.19-17.01,0,0-5.12-2.69-12.82-3.18Z"/>
      <path class="st0" d="M126.06,343.56s-10.29.21-20.21,8.03c.14,1.42.22,2.89.22,4.41,0,12.18-4.87,18.51-8.04,21.34,3.81,0,10.08-1.34,16.84-8.41,10.94-11.44,11.19-25.37,11.19-25.37Z"/>
      <path class="st0" d="M94.25,329.78s-9.24,10.04-9.24,26.22,9.24,20.82,9.24,20.82c0,0,9.24-4.64,9.24-20.82s-9.24-26.22-9.24-26.22Z"/>
      <path class="st0" d="M85.28,340.27c-4.84-4.62-9.19-6.48-9.19-6.48,0,0-1.38,3.94-1.59,9.95,2.69,1.12,5.62,2.67,8.56,4.82.51-3.07,1.31-5.84,2.22-8.29Z"/>
      <path class="st0" d="M114.02,343.73c-.21-6-1.59-9.94-1.59-9.94,0,0-4.35,1.86-9.2,6.48.91,2.44,1.7,5.22,2.22,8.28,2.94-2.15,5.87-3.71,8.56-4.82Z"/>
    </g>
    <g class="st1">
      <path class="st0" d="M64.12,460.97c-7.69.49-12.82,3.18-12.82,3.18,0,0,6.42,12.2,21.19,17.01,7.64,2.49,13.2,1.58,16.78.14-4.47-.28-10.81-2.2-17.46-9.17-3.48-3.64-5.95-7.51-7.7-11.16Z"/>
      <path class="st0" d="M82.44,457.29c0-1.52.08-3,.22-4.41-9.92-7.82-20.21-8.03-20.21-8.03,0,0,.26,13.93,11.19,25.37,6.76,7.07,13.03,8.42,16.84,8.41-3.17-2.83-8.04-9.16-8.04-21.34Z"/>
      <path class="st0" d="M124.39,460.97c-1.75,3.64-4.22,7.51-7.7,11.16-6.66,6.96-12.99,8.89-17.46,9.17,3.58,1.45,9.14,2.35,16.78-.14,14.77-4.8,21.19-17.01,21.19-17.01,0,0-5.12-2.69-12.82-3.18Z"/>
      <path class="st0" d="M126.06,444.85s-10.29.21-20.21,8.03c.14,1.42.22,2.89.22,4.41,0,12.18-4.87,18.51-8.04,21.34,3.81,0,10.08-1.34,16.84-8.41,10.94-11.44,11.19-25.37,11.19-25.37Z"/>
      <path class="st0" d="M94.25,431.07s-9.24,10.04-9.24,26.22,9.24,20.82,9.24,20.82c0,0,9.24-4.64,9.24-20.82s-9.24-26.22-9.24-26.22Z"/>
      <path class="st0" d="M85.28,441.56c-4.84-4.62-9.19-6.48-9.19-6.48,0,0-1.38,3.94-1.59,9.95,2.69,1.12,5.62,2.67,8.56,4.82.51-3.07,1.31-5.84,2.22-8.29Z"/>
      <path class="st0" d="M114.02,445.02c-.21-6-1.59-9.94-1.59-9.94,0,0-4.35,1.86-9.2,6.48.91,2.44,1.7,5.22,2.22,8.28,2.94-2.15,5.87-3.71,8.56-4.82Z"/>
    </g>
    <g class="st1">
      <path class="st0" d="M64.12,562.26c-7.69.49-12.82,3.18-12.82,3.18,0,0,6.42,12.2,21.19,17.01,7.64,2.49,13.2,1.58,16.78.14-4.47-.28-10.81-2.2-17.46-9.17-3.48-3.64-5.95-7.51-7.7-11.16Z"/>
      <path class="st0" d="M82.44,558.58c0-1.52.08-3,.22-4.41-9.92-7.82-20.21-8.03-20.21-8.03,0,0,.26,13.93,11.19,25.37,6.76,7.07,13.03,8.42,16.84,8.41-3.17-2.83-8.04-9.16-8.04-21.34Z"/>
      <path class="st0" d="M124.39,562.26c-1.75,3.64-4.22,7.51-7.7,11.16-6.66,6.96-12.99,8.89-17.46,9.17,3.58,1.45,9.14,2.35,16.78-.14,14.77-4.8,21.19-17.01,21.19-17.01,0,0-5.12-2.69-12.82-3.18Z"/>
      <path class="st0" d="M126.06,546.14s-10.29.21-20.21,8.03c.14,1.42.22,2.89.22,4.41,0,12.18-4.87,18.51-8.04,21.34,3.81,0,10.08-1.34,16.84-8.41,10.94-11.44,11.19-25.37,11.19-25.37Z"/>
      <path class="st0" d="M94.25,532.36s-9.24,10.04-9.24,26.22,9.24,20.82,9.24,20.82c0,0,9.24-4.64,9.24-20.82s-9.24-26.22-9.24-26.22Z"/>
      <path class="st0" d="M85.28,542.85c-4.84-4.62-9.19-6.48-9.19-6.48,0,0-1.38,3.94-1.59,9.95,2.69,1.12,5.62,2.67,8.56,4.82.51-3.07,1.31-5.84,2.22-8.29Z"/>
      <path class="st0" d="M114.02,546.32c-.21-6-1.59-9.94-1.59-9.94,0,0-4.35,1.86-9.2,6.48.91,2.44,1.7,5.22,2.22,8.28,2.94-2.15,5.87-3.71,8.56-4.82Z"/>
    </g>
  </g>
  <g>
    <g class="st1">
      <path class="st0" d="M213.15,51.19c-7.69.49-12.82,3.18-12.82,3.18,0,0,6.42,12.2,21.19,17.01,7.64,2.49,13.2,1.58,16.78.14-4.47-.28-10.81-2.2-17.46-9.17-3.48-3.64-5.95-7.51-7.7-11.16Z"/>
      <path class="st0" d="M231.47,47.52c0-1.52.08-3,.22-4.41-9.92-7.82-20.21-8.03-20.21-8.03,0,0,.26,13.93,11.19,25.37,6.76,7.07,13.03,8.42,16.84,8.41-3.17-2.83-8.04-9.16-8.04-21.34Z"/>
      <path class="st0" d="M273.42,51.19c-1.75,3.64-4.22,7.51-7.7,11.16-6.66,6.96-12.99,8.89-17.46,9.17,3.58,1.45,9.14,2.35,16.78-.14,14.77-4.8,21.19-17.01,21.19-17.01,0,0-5.12-2.69-12.82-3.18Z"/>
      <path class="st0" d="M275.09,35.08s-10.29.21-20.21,8.03c.14,1.42.22,2.89.22,4.41,0,12.18-4.87,18.51-8.04,21.34,3.81,0,10.08-1.34,16.84-8.41,10.94-11.44,11.19-25.37,11.19-25.37Z"/>
      <path class="st0" d="M243.29,21.3s-9.24,10.04-9.24,26.22,9.24,20.82,9.24,20.82c0,0,9.24-4.64,9.24-20.82s-9.24-26.22-9.24-26.22Z"/>
      <path class="st0" d="M234.31,31.79c-4.84-4.62-9.19-6.48-9.19-6.48,0,0-1.38,3.94-1.59,9.95,2.69,1.12,5.62,2.67,8.56,4.82.51-3.07,1.31-5.84,2.22-8.29Z"/>
      <path class="st0" d="M263.05,35.25c-.21-6-1.59-9.94-1.59-9.94,0,0-4.35,1.86-9.2,6.48.91,2.44,1.7,5.22,2.22,8.28,2.94-2.15,5.87-3.71,8.56-4.82Z"/>
    </g>
    <g class="st1">
      <path class="st0" d="M213.15,152.49c-7.69.49-12.82,3.18-12.82,3.18,0,0,6.42,12.2,21.19,17.01,7.64,2.49,13.2,1.58,16.78.14-4.47-.28-10.81-2.2-17.46-9.17-3.48-3.64-5.95-7.51-7.7-11.16Z"/>
      <path class="st0" d="M231.47,148.81c0-1.52.08-3,.22-4.41-9.92-7.82-20.21-8.03-20.21-8.03,0,0,.26,13.93,11.19,25.37,6.76,7.07,13.03,8.42,16.84,8.41-3.17-2.83-8.04-9.16-8.04-21.34Z"/>
      <path class="st0" d="M273.42,152.49c-1.75,3.64-4.22,7.51-7.7,11.16-6.66,6.96-12.99,8.89-17.46,9.17,3.58,1.45,9.14,2.35,16.78-.14,14.77-4.8,21.19-17.01,21.19-17.01,0,0-5.12-2.69-12.82-3.18Z"/>
      <path class="st0" d="M275.09,136.37s-10.29.21-20.21,8.03c.14,1.42.22,2.89.22,4.41,0,12.18-4.87,18.51-8.04,21.34,3.81,0,10.08-1.34,16.84-8.41,10.94-11.44,11.19-25.37,11.19-25.37Z"/>
      <path class="st0" d="M243.29,122.59s-9.24,10.04-9.24,26.22,9.24,20.82,9.24,20.82c0,0,9.24-4.64,9.24-20.82s-9.24-26.22-9.24-26.22Z"/>
      <path class="st0" d="M234.31,133.08c-4.84-4.62-9.19-6.48-9.19-6.48,0,0-1.38,3.94-1.59,9.95,2.69,1.12,5.62,2.67,8.56,4.82.51-3.07,1.31-5.84,2.22-8.29Z"/>
      <path class="st0" d="M263.05,136.55c-.21-6-1.59-9.94-1.59-9.94,0,0-4.35,1.86-9.2,6.48.91,2.44,1.7,5.22,2.22,8.28,2.94-2.15,5.87-3.71,8.56-4.82Z"/>
    </g>
    <g class="st1">
      <path class="st0" d="M213.15,253.78c-7.69.49-12.82,3.18-12.82,3.18,0,0,6.42,12.2,21.19,17.01,7.64,2.49,13.2,1.58,16.78.14-4.47-.28-10.81-2.2-17.46-9.17-3.48-3.64-5.95-7.51-7.7-11.16Z"/>
      <path class="st0" d="M231.47,250.1c0-1.52.08-3,.22-4.41-9.92-7.82-20.21-8.03-20.21-8.03,0,0,.26,13.93,11.19,25.37,6.76,7.07,13.03,8.42,16.84,8.41-3.17-2.83-8.04-9.16-8.04-21.34Z"/>
      <path class="st0" d="M273.42,253.78c-1.75,3.64-4.22,7.51-7.7,11.16-6.66,6.96-12.99,8.89-17.46,9.17,3.58,1.45,9.14,2.35,16.78-.14,14.77-4.8,21.19-17.01,21.19-17.01,0,0-5.12-2.69-12.82-3.18Z"/>
      <path class="st0" d="M275.09,237.66s-10.29.21-20.21,8.03c.14,1.42.22,2.89.22,4.41,0,12.18-4.87,18.51-8.04,21.34,3.81,0,10.08-1.34,16.84-8.41,10.94-11.44,11.19-25.37,11.19-25.37Z"/>
      <path class="st0" d="M243.29,223.89s-9.24,10.04-9.24,26.22,9.24,20.82,9.24,20.82c0,0,9.24-4.64,9.24-20.82s-9.24-26.22-9.24-26.22Z"/>
      <path class="st0" d="M234.31,234.37c-4.84-4.62-9.19-6.48-9.19-6.48,0,0-1.38,3.94-1.59,9.95,2.69,1.12,5.62,2.67,8.56,4.82.51-3.07,1.31-5.84,2.22-8.29Z"/>
      <path class="st0" d="M263.05,237.84c-.21-6-1.59-9.94-1.59-9.94,0,0-4.35,1.86-9.2,6.48.91,2.44,1.7,5.22,2.22,8.28,2.94-2.15,5.87-3.71,8.56-4.82Z"/>
    </g>
    <g class="st1">
      <path class="st0" d="M213.15,355.07c-7.69.49-12.82,3.18-12.82,3.18,0,0,6.42,12.2,21.19,17.01,7.64,2.49,13.2,1.58,16.78.14-4.47-.28-10.81-2.2-17.46-9.17-3.48-3.64-5.95-7.51-7.7-11.16Z"/>
      <path class="st0" d="M231.47,351.4c0-1.52.08-3,.22-4.41-9.92-7.82-20.21-8.03-20.21-8.03,0,0,.26,13.93,11.19,25.37,6.76,7.07,13.03,8.42,16.84,8.41-3.17-2.83-8.04-9.16-8.04-21.34Z"/>
      <path class="st0" d="M273.42,355.07c-1.75,3.64-4.22,7.51-7.7,11.16-6.66,6.96-12.99,8.89-17.46,9.17,3.58,1.45,9.14,2.35,16.78-.14,14.77-4.8,21.19-17.01,21.19-17.01,0,0-5.12-2.69-12.82-3.18Z"/>
      <path class="st0" d="M275.09,338.96s-10.29.21-20.21,8.03c.14,1.42.22,2.89.22,4.41,0,12.18-4.87,18.51-8.04,21.34,3.81,0,10.08-1.34,16.84-8.41,10.94-11.44,11.19-25.37,11.19-25.37Z"/>
      <path class="st0" d="M243.29,325.18s-9.24,10.04-9.24,26.22,9.24,20.82,9.24,20.82c0,0,9.24-4.64,9.24-20.82s-9.24-26.22-9.24-26.22Z"/>
      <path class="st0" d="M234.31,335.67c-4.84-4.62-9.19-6.48-9.19-6.48,0,0-1.38,3.94-1.59,9.95,2.69,1.12,5.62,2.67,8.56,4.82.51-3.07,1.31-5.84,2.22-8.29Z"/>
      <path class="st0" d="M263.05,339.13c-.21-6-1.59-9.94-1.59-9.94,0,0-4.35,1.86-9.2,6.48.91,2.44,1.7,5.22,2.22,8.28,2.94-2.15,5.87-3.71,8.56-4.82Z"/>
    </g>
    <g class="st1">
      <path class="st0" d="M213.15,456.37c-7.69.49-12.82,3.18-12.82,3.18,0,0,6.42,12.2,21.19,17.01,7.64,2.49,13.2,1.58,16.78.14-4.47-.28-10.81-2.2-17.46-9.17-3.48-3.64-5.95-7.51-7.7-11.16Z"/>
      <path class="st0" d="M231.47,452.69c0-1.52.08-3,.22-4.41-9.92-7.82-20.21-8.03-20.21-8.03,0,0,.26,13.93,11.19,25.37,6.76,7.07,13.03,8.42,16.84,8.41-3.17-2.83-8.04-9.16-8.04-21.34Z"/>
      <path class="st0" d="M273.42,456.37c-1.75,3.64-4.22,7.51-7.7,11.16-6.66,6.96-12.99,8.89-17.46,9.17,3.58,1.45,9.14,2.35,16.78-.14,14.77-4.8,21.19-17.01,21.19-17.01,0,0-5.12-2.69-12.82-3.18Z"/>
      <path class="st0" d="M275.09,440.25s-10.29.21-20.21,8.03c.14,1.42.22,2.89.22,4.41,0,12.18-4.87,18.51-8.04,21.34,3.81,0,10.08-1.34,16.84-8.41,10.94-11.44,11.19-25.37,11.19-25.37Z"/>
      <path class="st0" d="M243.29,426.47s-9.24,10.04-9.24,26.22,9.24,20.82,9.24,20.82c0,0,9.24-4.64,9.24-20.82s-9.24-26.22-9.24-26.22Z"/>
      <path class="st0" d="M234.31,436.96c-4.84-4.62-9.19-6.48-9.19-6.48,0,0-1.38,3.94-1.59,9.95,2.69,1.12,5.62,2.67,8.56,4.82.51-3.07,1.31-5.84,2.22-8.29Z"/>
      <path class="st0" d="M263.05,440.43c-.21-6-1.59-9.94-1.59-9.94,0,0-4.35,1.86-9.2,6.48.91,2.44,1.7,5.22,2.22,8.28,2.94-2.15,5.87-3.71,8.56-4.82Z"/>
    </g>
    <g class="st1">
      <path class="st0" d="M213.15,557.66c-7.69.49-12.82,3.18-12.82,3.18,0,0,6.42,12.2,21.19,17.01,7.64,2.49,13.2,1.58,16.78.14-4.47-.28-10.81-2.2-17.46-9.17-3.48-3.64-5.95-7.51-7.7-11.16Z"/>
      <path class="st0" d="M231.47,553.98c0-1.52.08-3,.22-4.41-9.92-7.82-20.21-8.03-20.21-8.03,0,0,.26,13.93,11.19,25.37,6.76,7.07,13.03,8.42,16.84,8.41-3.17-2.83-8.04-9.16-8.04-21.34Z"/>
      <path class="st0" d="M273.42,557.66c-1.75,3.64-4.22,7.51-7.7,11.16-6.66,6.96-12.99,8.89-17.46,9.17,3.58,1.45,9.14,2.35,16.78-.14,14.77-4.8,21.19-17.01,21.19-17.01,0,0-5.12-2.69-12.82-3.18Z"/>
      <path class="st0" d="M275.09,541.54s-10.29.21-20.21,8.03c.14,1.42.22,2.89.22,4.41,0,12.18-4.87,18.51-8.04,21.34,3.81,0,10.08-1.34,16.84-8.41,10.94-11.44,11.19-25.37,11.19-25.37Z"/>
      <path class="st0" d="M243.29,527.77s-9.24,10.04-9.24,26.22,9.24,20.82,9.24,20.82c0,0,9.24-4.64,9.24-20.82s-9.24-26.22-9.24-26.22Z"/>
      <path class="st0" d="M234.31,538.25c-4.84-4.62-9.19-6.48-9.19-6.48,0,0-1.38,3.94-1.59,9.95,2.69,1.12,5.62,2.67,8.56,4.82.51-3.07,1.31-5.84,2.22-8.29Z"/>
      <path class="st0" d="M263.05,541.72c-.21-6-1.59-9.94-1.59-9.94,0,0-4.35,1.86-9.2,6.48.91,2.44,1.7,5.22,2.22,8.28,2.94-2.15,5.87-3.71,8.56-4.82Z"/>
    </g>
  </g>
  <g>
    <g class="st1">
      <path class="st0" d="M362.18,46.6c-7.69.49-12.82,3.18-12.82,3.18,0,0,6.42,12.2,21.19,17.01,7.64,2.49,13.2,1.58,16.78.14-4.47-.28-10.81-2.2-17.46-9.17-3.48-3.64-5.95-7.51-7.7-11.16Z"/>
      <path class="st0" d="M380.5,42.92c0-1.52.08-3,.22-4.41-9.92-7.82-20.21-8.03-20.21-8.03,0,0,.26,13.93,11.19,25.37,6.76,7.07,13.03,8.42,16.84,8.41-3.17-2.83-8.04-9.16-8.04-21.34Z"/>
      <path class="st0" d="M422.45,46.6c-1.75,3.64-4.22,7.51-7.7,11.16-6.66,6.96-12.99,8.89-17.46,9.17,3.58,1.45,9.14,2.35,16.78-.14,14.77-4.8,21.19-17.01,21.19-17.01,0,0-5.12-2.69-12.82-3.18Z"/>
      <path class="st0" d="M424.12,30.48s-10.29.21-20.21,8.03c.14,1.42.22,2.89.22,4.41,0,12.18-4.87,18.51-8.04,21.34,3.81,0,10.08-1.34,16.84-8.41,10.94-11.44,11.19-25.37,11.19-25.37Z"/>
      <path class="st0" d="M392.32,16.7s-9.24,10.04-9.24,26.22,9.24,20.82,9.24,20.82c0,0,9.24-4.64,9.24-20.82s-9.24-26.22-9.24-26.22Z"/>
      <path class="st0" d="M383.34,27.19c-4.84-4.62-9.19-6.48-9.19-6.48,0,0-1.38,3.94-1.59,9.95,2.69,1.12,5.62,2.67,8.56,4.82.51-3.07,1.31-5.84,2.22-8.29Z"/>
      <path class="st0" d="M412.08,30.65c-.21-6-1.59-9.94-1.59-9.94,0,0-4.35,1.86-9.2,6.48.91,2.44,1.7,5.22,2.22,8.28,2.94-2.15,5.87-3.71,8.56-4.82Z"/>
    </g>
    <g class="st1">
      <path class="st0" d="M362.18,147.89c-7.69.49-12.82,3.18-12.82,3.18,0,0,6.42,12.2,21.19,17.01,7.64,2.49,13.2,1.58,16.78.14-4.47-.28-10.81-2.2-17.46-9.17-3.48-3.64-5.95-7.51-7.7-11.16Z"/>
      <path class="st0" d="M380.5,144.21c0-1.52.08-3,.22-4.41-9.92-7.82-20.21-8.03-20.21-8.03,0,0,.26,13.93,11.19,25.37,6.76,7.07,13.03,8.42,16.84,8.41-3.17-2.83-8.04-9.16-8.04-21.34Z"/>
      <path class="st0" d="M422.45,147.89c-1.75,3.64-4.22,7.51-7.7,11.16-6.66,6.96-12.99,8.89-17.46,9.17,3.58,1.45,9.14,2.35,16.78-.14,14.77-4.8,21.19-17.01,21.19-17.01,0,0-5.12-2.69-12.82-3.18Z"/>
      <path class="st0" d="M424.12,131.77s-10.29.21-20.21,8.03c.14,1.42.22,2.89.22,4.41,0,12.18-4.87,18.51-8.04,21.34,3.81,0,10.08-1.34,16.84-8.41,10.94-11.44,11.19-25.37,11.19-25.37Z"/>
      <path class="st0" d="M392.32,117.99s-9.24,10.04-9.24,26.22,9.24,20.82,9.24,20.82c0,0,9.24-4.64,9.24-20.82s-9.24-26.22-9.24-26.22Z"/>
      <path class="st0" d="M383.34,128.48c-4.84-4.62-9.19-6.48-9.19-6.48,0,0-1.38,3.94-1.59,9.95,2.69,1.12,5.62,2.67,8.56,4.82.51-3.07,1.31-5.84,2.22-8.29Z"/>
      <path class="st0" d="M412.08,131.95c-.21-6-1.59-9.94-1.59-9.94,0,0-4.35,1.86-9.2,6.48.91,2.44,1.7,5.22,2.22,8.28,2.94-2.15,5.87-3.71,8.56-4.82Z"/>
    </g>
    <g class="st1">
      <path class="st0" d="M362.18,249.18c-7.69.49-12.82,3.18-12.82,3.18,0,0,6.42,12.2,21.19,17.01,7.64,2.49,13.2,1.58,16.78.14-4.47-.28-10.81-2.2-17.46-9.17-3.48-3.64-5.95-7.51-7.7-11.16Z"/>
      <path class="st0" d="M380.5,245.5c0-1.52.08-3,.22-4.41-9.92-7.82-20.21-8.03-20.21-8.03,0,0,.26,13.93,11.19,25.37,6.76,7.07,13.03,8.42,16.84,8.41-3.17-2.83-8.04-9.16-8.04-21.34Z"/>
      <path class="st0" d="M422.45,249.18c-1.75,3.64-4.22,7.51-7.7,11.16-6.66,6.96-12.99,8.89-17.46,9.17,3.58,1.45,9.14,2.35,16.78-.14,14.77-4.8,21.19-17.01,21.19-17.01,0,0-5.12-2.69-12.82-3.18Z"/>
      <path class="st0" d="M424.12,233.07s-10.29.21-20.21,8.03c.14,1.42.22,2.89.22,4.41,0,12.18-4.87,18.51-8.04,21.34,3.81,0,10.08-1.34,16.84-8.41,10.94-11.44,11.19-25.37,11.19-25.37Z"/>
      <path class="st0" d="M392.32,219.29s-9.24,10.04-9.24,26.22,9.24,20.82,9.24,20.82c0,0,9.24-4.64,9.24-20.82s-9.24-26.22-9.24-26.22Z"/>
      <path class="st0" d="M383.34,229.78c-4.84-4.62-9.19-6.48-9.19-6.48,0,0-1.38,3.94-1.59,9.95,2.69,1.12,5.62,2.67,8.56,4.82.51-3.07,1.31-5.84,2.22-8.29Z"/>
      <path class="st0" d="M412.08,233.24c-.21-6-1.59-9.94-1.59-9.94,0,0-4.35,1.86-9.2,6.48.91,2.44,1.7,5.22,2.22,8.28,2.94-2.15,5.87-3.71,8.56-4.82Z"/>
    </g>
    <g class="st1">
      <path class="st0" d="M362.18,350.48c-7.69.49-12.82,3.18-12.82,3.18,0,0,6.42,12.2,21.19,17.01,7.64,2.49,13.2,1.58,16.78.14-4.47-.28-10.81-2.2-17.46-9.17-3.48-3.64-5.95-7.51-7.7-11.16Z"/>
      <path class="st0" d="M380.5,346.8c0-1.52.08-3,.22-4.41-9.92-7.82-20.21-8.03-20.21-8.03,0,0,.26,13.93,11.19,25.37,6.76,7.07,13.03,8.42,16.84,8.41-3.17-2.83-8.04-9.16-8.04-21.34Z"/>
      <path class="st0" d="M422.45,350.48c-1.75,3.64-4.22,7.51-7.7,11.16-6.66,6.96-12.99,8.89-17.46,9.17,3.58,1.45,9.14,2.35,16.78-.14,14.77-4.8,21.19-17.01,21.19-17.01,0,0-5.12-2.69-12.82-3.18Z"/>
      <path class="st0" d="M424.12,334.36s-10.29.21-20.21,8.03c.14,1.42.22,2.89.22,4.41,0,12.18-4.87,18.51-8.04,21.34,3.81,0,10.08-1.34,16.84-8.41,10.94-11.44,11.19-25.37,11.19-25.37Z"/>
      <path class="st0" d="M392.32,320.58s-9.24,10.04-9.24,26.22,9.24,20.82,9.24,20.82c0,0,9.24-4.64,9.24-20.82s-9.24-26.22-9.24-26.22Z"/>
      <path class="st0" d="M383.34,331.07c-4.84-4.62-9.19-6.48-9.19-6.48,0,0-1.38,3.94-1.59,9.95,2.69,1.12,5.62,2.67,8.56,4.82.51-3.07,1.31-5.84,2.22-8.29Z"/>
      <path class="st0" d="M412.08,334.53c-.21-6-1.59-9.94-1.59-9.94,0,0-4.35,1.86-9.2,6.48.91,2.44,1.7,5.22,2.22,8.28,2.94-2.15,5.87-3.71,8.56-4.82Z"/>
    </g>
    <g class="st1">
      <path class="st0" d="M362.18,451.77c-7.69.49-12.82,3.18-12.82,3.18,0,0,6.42,12.2,21.19,17.01,7.64,2.49,13.2,1.58,16.78.14-4.47-.28-10.81-2.2-17.46-9.17-3.48-3.64-5.95-7.51-7.7-11.16Z"/>
      <path class="st0" d="M380.5,448.09c0-1.52.08-3,.22-4.41-9.92-7.82-20.21-8.03-20.21-8.03,0,0,.26,13.93,11.19,25.37,6.76,7.07,13.03,8.42,16.84,8.41-3.17-2.83-8.04-9.16-8.04-21.34Z"/>
      <path class="st0" d="M422.45,451.77c-1.75,3.64-4.22,7.51-7.7,11.16-6.66,6.96-12.99,8.89-17.46,9.17,3.58,1.45,9.14,2.35,16.78-.14,14.77-4.8,21.19-17.01,21.19-17.01,0,0-5.12-2.69-12.82-3.18Z"/>
      <path class="st0" d="M424.12,435.65s-10.29.21-20.21,8.03c.14,1.42.22,2.89.22,4.41,0,12.18-4.87,18.51-8.04,21.34,3.81,0,10.08-1.34,16.84-8.41,10.94-11.44,11.19-25.37,11.19-25.37Z"/>
      <path class="st0" d="M392.32,421.87s-9.24,10.04-9.24,26.22,9.24,20.82,9.24,20.82c0,0,9.24-4.64,9.24-20.82s-9.24-26.22-9.24-26.22Z"/>
      <path class="st0" d="M383.34,432.36c-4.84-4.62-9.19-6.48-9.19-6.48,0,0-1.38,3.94-1.59,9.95,2.69,1.12,5.62,2.67,8.56,4.82.51-3.07,1.31-5.84,2.22-8.29Z"/>
      <path class="st0" d="M412.08,435.83c-.21-6-1.59-9.94-1.59-9.94,0,0-4.35,1.86-9.2,6.48.91,2.44,1.7,5.22,2.22,8.28,2.94-2.15,5.87-3.71,8.56-4.82Z"/>
    </g>
    <g class="st1">
      <path class="st0" d="M362.18,553.06c-7.69.49-12.82,3.18-12.82,3.18,0,0,6.42,12.2,21.19,17.01,7.64,2.49,13.2,1.58,16.78.14-4.47-.28-10.81-2.2-17.46-9.17-3.48-3.64-5.95-7.51-7.7-11.16Z"/>
      <path class="st0" d="M380.5,549.38c0-1.52.08-3,.22-4.41-9.92-7.82-20.21-8.03-20.21-8.03,0,0,.26,13.93,11.19,25.37,6.76,7.07,13.03,8.42,16.84,8.41-3.17-2.83-8.04-9.16-8.04-21.34Z"/>
      <path class="st0" d="M422.45,553.06c-1.75,3.64-4.22,7.51-7.7,11.16-6.66,6.96-12.99,8.89-17.46,9.17,3.58,1.45,9.14,2.35,16.78-.14,14.77-4.8,21.19-17.01,21.19-17.01,0,0-5.12-2.69-12.82-3.18Z"/>
      <path class="st0" d="M424.12,536.95s-10.29.21-20.21,8.03c.14,1.42.22,2.89.22,4.41,0,12.18-4.87,18.51-8.04,21.34,3.81,0,10.08-1.34,16.84-8.41,10.94-11.44,11.19-25.37,11.19-25.37Z"/>
      <path class="st0" d="M392.32,523.17s-9.24,10.04-9.24,26.22,9.24,20.82,9.24,20.82c0,0,9.24-4.64,9.24-20.82s-9.24-26.22-9.24-26.22Z"/>
      <path class="st0" d="M383.34,533.66c-4.84-4.62-9.19-6.48-9.19-6.48,0,0-1.38,3.94-1.59,9.95,2.69,1.12,5.62,2.67,8.56,4.82.51-3.07,1.31-5.84,2.22-8.29Z"/>
      <path class="st0" d="M412.08,537.12c-.21-6-1.59-9.94-1.59-9.94,0,0-4.35,1.86-9.2,6.48.91,2.44,1.7,5.22,2.22,8.28,2.94-2.15,5.87-3.71,8.56-4.82Z"/>
    </g>
  </g>
  <g>
    <g class="st1">
      <path class="st0" d="M511.22,42c-7.69.49-12.82,3.18-12.82,3.18,0,0,6.42,12.2,21.19,17.01,7.64,2.49,13.2,1.58,16.78.14-4.47-.28-10.81-2.2-17.46-9.17-3.48-3.64-5.95-7.51-7.7-11.16Z"/>
      <path class="st0" d="M529.54,38.32c0-1.52.08-3,.22-4.41-9.92-7.82-20.21-8.03-20.21-8.03,0,0,.26,13.93,11.19,25.37,6.76,7.07,13.03,8.42,16.84,8.41-3.17-2.83-8.04-9.16-8.04-21.34Z"/>
      <path class="st0" d="M571.48,42c-1.75,3.64-4.22,7.51-7.7,11.16-6.66,6.96-12.99,8.89-17.46,9.17,3.58,1.45,9.14,2.35,16.78-.14,14.77-4.8,21.19-17.01,21.19-17.01,0,0-5.12-2.69-12.82-3.18Z"/>
      <path class="st0" d="M573.15,25.88s-10.29.21-20.21,8.03c.14,1.42.22,2.89.22,4.41,0,12.18-4.87,18.51-8.04,21.34,3.81,0,10.08-1.34,16.84-8.41,10.94-11.44,11.19-25.37,11.19-25.37Z"/>
      <path class="st0" d="M541.35,12.1s-9.24,10.04-9.24,26.22,9.24,20.82,9.24,20.82c0,0,9.24-4.64,9.24-20.82s-9.24-26.22-9.24-26.22Z"/>
      <path class="st0" d="M532.37,22.59c-4.84-4.62-9.19-6.48-9.19-6.48,0,0-1.38,3.94-1.59,9.95,2.69,1.12,5.62,2.67,8.56,4.82.51-3.07,1.31-5.84,2.22-8.29Z"/>
      <path class="st0" d="M561.11,26.06c-.21-6-1.59-9.94-1.59-9.94,0,0-4.35,1.86-9.2,6.48.91,2.44,1.7,5.22,2.22,8.28,2.94-2.15,5.87-3.71,8.56-4.82Z"/>
    </g>
    <g class="st1">
      <path class="st0" d="M511.22,143.29c-7.69.49-12.82,3.18-12.82,3.18,0,0,6.42,12.2,21.19,17.01,7.64,2.49,13.2,1.58,16.78.14-4.47-.28-10.81-2.2-17.46-9.17-3.48-3.64-5.95-7.51-7.7-11.16Z"/>
      <path class="st0" d="M529.54,139.61c0-1.52.08-3,.22-4.41-9.92-7.82-20.21-8.03-20.21-8.03,0,0,.26,13.93,11.19,25.37,6.76,7.07,13.03,8.42,16.84,8.41-3.17-2.83-8.04-9.16-8.04-21.34Z"/>
      <path class="st0" d="M571.48,143.29c-1.75,3.64-4.22,7.51-7.7,11.16-6.66,6.96-12.99,8.89-17.46,9.17,3.58,1.45,9.14,2.35,16.78-.14,14.77-4.8,21.19-17.01,21.19-17.01,0,0-5.12-2.69-12.82-3.18Z"/>
      <path class="st0" d="M573.15,127.17s-10.29.21-20.21,8.03c.14,1.42.22,2.89.22,4.41,0,12.18-4.87,18.51-8.04,21.34,3.81,0,10.08-1.34,16.84-8.41,10.94-11.44,11.19-25.37,11.19-25.37Z"/>
      <path class="st0" d="M541.35,113.4s-9.24,10.04-9.24,26.22,9.24,20.82,9.24,20.82c0,0,9.24-4.64,9.24-20.82s-9.24-26.22-9.24-26.22Z"/>
      <path class="st0" d="M532.37,123.88c-4.84-4.62-9.19-6.48-9.19-6.48,0,0-1.38,3.94-1.59,9.95,2.69,1.12,5.62,2.67,8.56,4.82.51-3.07,1.31-5.84,2.22-8.29Z"/>
      <path class="st0" d="M561.11,127.35c-.21-6-1.59-9.94-1.59-9.94,0,0-4.35,1.86-9.2,6.48.91,2.44,1.7,5.22,2.22,8.28,2.94-2.15,5.87-3.71,8.56-4.82Z"/>
    </g>
    <g class="st1">
      <path class="st0" d="M511.22,244.58c-7.69.49-12.82,3.18-12.82,3.18,0,0,6.42,12.2,21.19,17.01,7.64,2.49,13.2,1.58,16.78.14-4.47-.28-10.81-2.2-17.46-9.17-3.48-3.64-5.95-7.51-7.7-11.16Z"/>
      <path class="st0" d="M529.54,240.91c0-1.52.08-3,.22-4.41-9.92-7.82-20.21-8.03-20.21-8.03,0,0,.26,13.93,11.19,25.37,6.76,7.07,13.03,8.42,16.84,8.41-3.17-2.83-8.04-9.16-8.04-21.34Z"/>
      <path class="st0" d="M571.48,244.58c-1.75,3.64-4.22,7.51-7.7,11.16-6.66,6.96-12.99,8.89-17.46,9.17,3.58,1.45,9.14,2.35,16.78-.14,14.77-4.8,21.19-17.01,21.19-17.01,0,0-5.12-2.69-12.82-3.18Z"/>
      <path class="st0" d="M573.15,228.47s-10.29.21-20.21,8.03c.14,1.42.22,2.89.22,4.41,0,12.18-4.87,18.51-8.04,21.34,3.81,0,10.08-1.34,16.84-8.41,10.94-11.44,11.19-25.37,11.19-25.37Z"/>
      <path class="st0" d="M541.35,214.69s-9.24,10.04-9.24,26.22,9.24,20.82,9.24,20.82c0,0,9.24-4.64,9.24-20.82s-9.24-26.22-9.24-26.22Z"/>
      <path class="st0" d="M532.37,225.18c-4.84-4.62-9.19-6.48-9.19-6.48,0,0-1.38,3.94-1.59,9.95,2.69,1.12,5.62,2.67,8.56,4.82.51-3.07,1.31-5.84,2.22-8.29Z"/>
      <path class="st0" d="M561.11,228.64c-.21-6-1.59-9.94-1.59-9.94,0,0-4.35,1.86-9.2,6.48.91,2.44,1.7,5.22,2.22,8.28,2.94-2.15,5.87-3.71,8.56-4.82Z"/>
    </g>
    <g class="st1">
      <path class="st0" d="M511.22,345.88c-7.69.49-12.82,3.18-12.82,3.18,0,0,6.42,12.2,21.19,17.01,7.64,2.49,13.2,1.58,16.78.14-4.47-.28-10.81-2.2-17.46-9.17-3.48-3.64-5.95-7.51-7.7-11.16Z"/>
      <path class="st0" d="M529.54,342.2c0-1.52.08-3,.22-4.41-9.92-7.82-20.21-8.03-20.21-8.03,0,0,.26,13.93,11.19,25.37,6.76,7.07,13.03,8.42,16.84,8.41-3.17-2.83-8.04-9.16-8.04-21.34Z"/>
      <path class="st0" d="M571.48,345.88c-1.75,3.64-4.22,7.51-7.7,11.16-6.66,6.96-12.99,8.89-17.46,9.17,3.58,1.45,9.14,2.35,16.78-.14,14.77-4.8,21.19-17.01,21.19-17.01,0,0-5.12-2.69-12.82-3.18Z"/>
      <path class="st0" d="M573.15,329.76s-10.29.21-20.21,8.03c.14,1.42.22,2.89.22,4.41,0,12.18-4.87,18.51-8.04,21.34,3.81,0,10.08-1.34,16.84-8.41,10.94-11.44,11.19-25.37,11.19-25.37Z"/>
      <path class="st0" d="M541.35,315.98s-9.24,10.04-9.24,26.22,9.24,20.82,9.24,20.82c0,0,9.24-4.64,9.24-20.82s-9.24-26.22-9.24-26.22Z"/>
      <path class="st0" d="M532.37,326.47c-4.84-4.62-9.19-6.48-9.19-6.48,0,0-1.38,3.94-1.59,9.95,2.69,1.12,5.62,2.67,8.56,4.82.51-3.07,1.31-5.84,2.22-8.29Z"/>
      <path class="st0" d="M561.11,329.94c-.21-6-1.59-9.94-1.59-9.94,0,0-4.35,1.86-9.2,6.48.91,2.44,1.7,5.22,2.22,8.28,2.94-2.15,5.87-3.71,8.56-4.82Z"/>
    </g>
    <g class="st1">
      <path class="st0" d="M511.22,447.17c-7.69.49-12.82,3.18-12.82,3.18,0,0,6.42,12.2,21.19,17.01,7.64,2.49,13.2,1.58,16.78.14-4.47-.28-10.81-2.2-17.46-9.17-3.48-3.64-5.95-7.51-7.7-11.16Z"/>
      <path class="st0" d="M529.54,443.49c0-1.52.08-3,.22-4.41-9.92-7.82-20.21-8.03-20.21-8.03,0,0,.26,13.93,11.19,25.37,6.76,7.07,13.03,8.42,16.84,8.41-3.17-2.83-8.04-9.16-8.04-21.34Z"/>
      <path class="st0" d="M571.48,447.17c-1.75,3.64-4.22,7.51-7.7,11.16-6.66,6.96-12.99,8.89-17.46,9.17,3.58,1.45,9.14,2.35,16.78-.14,14.77-4.8,21.19-17.01,21.19-17.01,0,0-5.12-2.69-12.82-3.18Z"/>
      <path class="st0" d="M573.15,431.05s-10.29.21-20.21,8.03c.14,1.42.22,2.89.22,4.41,0,12.18-4.87,18.51-8.04,21.34,3.81,0,10.08-1.34,16.84-8.41,10.94-11.44,11.19-25.37,11.19-25.37Z"/>
      <path class="st0" d="M541.35,417.28s-9.24,10.04-9.24,26.22,9.24,20.82,9.24,20.82c0,0,9.24-4.64,9.24-20.82s-9.24-26.22-9.24-26.22Z"/>
      <path class="st0" d="M532.37,427.76c-4.84-4.62-9.19-6.48-9.19-6.48,0,0-1.38,3.94-1.59,9.95,2.69,1.12,5.62,2.67,8.56,4.82.51-3.07,1.31-5.84,2.22-8.29Z"/>
      <path class="st0" d="M561.11,431.23c-.21-6-1.59-9.94-1.59-9.94,0,0-4.35,1.86-9.2,6.48.91,2.44,1.7,5.22,2.22,8.28,2.94-2.15,5.87-3.71,8.56-4.82Z"/>
    </g>
    <g class="st1">
      <path class="st0" d="M511.22,548.46c-7.69.49-12.82,3.18-12.82,3.18,0,0,6.42,12.2,21.19,17.01,7.64,2.49,13.2,1.58,16.78.14-4.47-.28-10.81-2.2-17.46-9.17-3.48-3.64-5.95-7.51-7.7-11.16Z"/>
      <path class="st0" d="M529.54,544.79c0-1.52.08-3,.22-4.41-9.92-7.82-20.21-8.03-20.21-8.03,0,0,.26,13.93,11.19,25.37,6.76,7.07,13.03,8.42,16.84,8.41-3.17-2.83-8.04-9.16-8.04-21.34Z"/>
      <path class="st0" d="M571.48,548.46c-1.75,3.64-4.22,7.51-7.7,11.16-6.66,6.96-12.99,8.89-17.46,9.17,3.58,1.45,9.14,2.35,16.78-.14,14.77-4.8,21.19-17.01,21.19-17.01,0,0-5.12-2.69-12.82-3.18Z"/>
      <path class="st0" d="M573.15,532.35s-10.29.21-20.21,8.03c.14,1.42.22,2.89.22,4.41,0,12.18-4.87,18.51-8.04,21.34,3.81,0,10.08-1.34,16.84-8.41,10.94-11.44,11.19-25.37,11.19-25.37Z"/>
      <path class="st0" d="M541.35,518.57s-9.24,10.04-9.24,26.22,9.24,20.82,9.24,20.82c0,0,9.24-4.64,9.24-20.82s-9.24-26.22-9.24-26.22Z"/>
      <path class="st0" d="M532.37,529.06c-4.84-4.62-9.19-6.48-9.19-6.48,0,0-1.38,3.94-1.59,9.95,2.69,1.12,5.62,2.67,8.56,4.82.51-3.07,1.31-5.84,2.22-8.29Z"/>
      <path class="st0" d="M561.11,532.52c-.21-6-1.59-9.94-1.59-9.94,0,0-4.35,1.86-9.2,6.48.91,2.44,1.7,5.22,2.22,8.28,2.94-2.15,5.87-3.71,8.56-4.82Z"/>
    </g>
  </g>
  <g>
    <g class="st1">
      <path class="st0" d="M660.25,37.4c-7.69.49-12.82,3.18-12.82,3.18,0,0,6.42,12.2,21.19,17.01,7.64,2.49,13.2,1.58,16.78.14-4.47-.28-10.81-2.2-17.46-9.17-3.48-3.64-5.95-7.51-7.7-11.16Z"/>
      <path class="st0" d="M678.57,33.72c0-1.52.08-3,.22-4.41-9.92-7.82-20.21-8.03-20.21-8.03,0,0,.26,13.93,11.19,25.37,6.76,7.07,13.03,8.42,16.84,8.41-3.17-2.83-8.04-9.16-8.04-21.34Z"/>
      <path class="st0" d="M720.52,37.4c-1.75,3.64-4.22,7.51-7.7,11.16-6.66,6.96-12.99,8.89-17.46,9.17,3.58,1.45,9.14,2.35,16.78-.14,14.77-4.8,21.19-17.01,21.19-17.01,0,0-5.12-2.69-12.82-3.18Z"/>
      <path class="st0" d="M722.19,21.28s-10.29.21-20.21,8.03c.14,1.42.22,2.89.22,4.41,0,12.18-4.87,18.51-8.04,21.34,3.81,0,10.08-1.34,16.84-8.41,10.94-11.44,11.19-25.37,11.19-25.37Z"/>
      <path class="st0" d="M690.38,7.5s-9.24,10.04-9.24,26.22,9.24,20.82,9.24,20.82c0,0,9.24-4.64,9.24-20.82s-9.24-26.22-9.24-26.22Z"/>
      <path class="st0" d="M681.4,17.99c-4.84-4.62-9.19-6.48-9.19-6.48,0,0-1.38,3.94-1.59,9.95,2.69,1.12,5.62,2.67,8.56,4.82.51-3.07,1.31-5.84,2.22-8.29Z"/>
      <path class="st0" d="M710.14,21.46c-.21-6-1.59-9.94-1.59-9.94,0,0-4.35,1.86-9.2,6.48.91,2.44,1.7,5.22,2.22,8.28,2.94-2.15,5.87-3.71,8.56-4.82Z"/>
    </g>
    <g class="st1">
      <path class="st0" d="M660.25,138.69c-7.69.49-12.82,3.18-12.82,3.18,0,0,6.42,12.2,21.19,17.01,7.64,2.49,13.2,1.58,16.78.14-4.47-.28-10.81-2.2-17.46-9.17-3.48-3.64-5.95-7.51-7.7-11.16Z"/>
      <path class="st0" d="M678.57,135.01c0-1.52.08-3,.22-4.41-9.92-7.82-20.21-8.03-20.21-8.03,0,0,.26,13.93,11.19,25.37,6.76,7.07,13.03,8.42,16.84,8.41-3.17-2.83-8.04-9.16-8.04-21.34Z"/>
      <path class="st0" d="M720.52,138.69c-1.75,3.64-4.22,7.51-7.7,11.16-6.66,6.96-12.99,8.89-17.46,9.17,3.58,1.45,9.14,2.35,16.78-.14,14.77-4.8,21.19-17.01,21.19-17.01,0,0-5.12-2.69-12.82-3.18Z"/>
      <path class="st0" d="M722.19,122.57s-10.29.21-20.21,8.03c.14,1.42.22,2.89.22,4.41,0,12.18-4.87,18.51-8.04,21.34,3.81,0,10.08-1.34,16.84-8.41,10.94-11.44,11.19-25.37,11.19-25.37Z"/>
      <path class="st0" d="M690.38,108.8s-9.24,10.04-9.24,26.22,9.24,20.82,9.24,20.82c0,0,9.24-4.64,9.24-20.82s-9.24-26.22-9.24-26.22Z"/>
      <path class="st0" d="M681.4,119.28c-4.84-4.62-9.19-6.48-9.19-6.48,0,0-1.38,3.94-1.59,9.95,2.69,1.12,5.62,2.67,8.56,4.82.51-3.07,1.31-5.84,2.22-8.29Z"/>
      <path class="st0" d="M710.14,122.75c-.21-6-1.59-9.94-1.59-9.94,0,0-4.35,1.86-9.2,6.48.91,2.44,1.7,5.22,2.22,8.28,2.94-2.15,5.87-3.71,8.56-4.82Z"/>
    </g>
    <g class="st1">
      <path class="st0" d="M660.25,239.99c-7.69.49-12.82,3.18-12.82,3.18,0,0,6.42,12.2,21.19,17.01,7.64,2.49,13.2,1.58,16.78.14-4.47-.28-10.81-2.2-17.46-9.17-3.48-3.64-5.95-7.51-7.7-11.16Z"/>
      <path class="st0" d="M678.57,236.31c0-1.52.08-3,.22-4.41-9.92-7.82-20.21-8.03-20.21-8.03,0,0,.26,13.93,11.19,25.37,6.76,7.07,13.03,8.42,16.84,8.41-3.17-2.83-8.04-9.16-8.04-21.34Z"/>
      <path class="st0" d="M720.52,239.99c-1.75,3.64-4.22,7.51-7.7,11.16-6.66,6.96-12.99,8.89-17.46,9.17,3.58,1.45,9.14,2.35,16.78-.14,14.77-4.8,21.19-17.01,21.19-17.01,0,0-5.12-2.69-12.82-3.18Z"/>
      <path class="st0" d="M722.19,223.87s-10.29.21-20.21,8.03c.14,1.42.22,2.89.22,4.41,0,12.18-4.87,18.51-8.04,21.34,3.81,0,10.08-1.34,16.84-8.41,10.94-11.44,11.19-25.37,11.19-25.37Z"/>
      <path class="st0" d="M690.38,210.09s-9.24,10.04-9.24,26.22,9.24,20.82,9.24,20.82c0,0,9.24-4.64,9.24-20.82s-9.24-26.22-9.24-26.22Z"/>
      <path class="st0" d="M681.4,220.58c-4.84-4.62-9.19-6.48-9.19-6.48,0,0-1.38,3.94-1.59,9.95,2.69,1.12,5.62,2.67,8.56,4.82.51-3.07,1.31-5.84,2.22-8.29Z"/>
      <path class="st0" d="M710.14,224.04c-.21-6-1.59-9.94-1.59-9.94,0,0-4.35,1.86-9.2,6.48.91,2.44,1.7,5.22,2.22,8.28,2.94-2.15,5.87-3.71,8.56-4.82Z"/>
    </g>
    <g class="st1">
      <path class="st0" d="M660.25,341.28c-7.69.49-12.82,3.18-12.82,3.18,0,0,6.42,12.2,21.19,17.01,7.64,2.49,13.2,1.58,16.78.14-4.47-.28-10.81-2.2-17.46-9.17-3.48-3.64-5.95-7.51-7.7-11.16Z"/>
      <path class="st0" d="M678.57,337.6c0-1.52.08-3,.22-4.41-9.92-7.82-20.21-8.03-20.21-8.03,0,0,.26,13.93,11.19,25.37,6.76,7.07,13.03,8.42,16.84,8.41-3.17-2.83-8.04-9.16-8.04-21.34Z"/>
      <path class="st0" d="M720.52,341.28c-1.75,3.64-4.22,7.51-7.7,11.16-6.66,6.96-12.99,8.89-17.46,9.17,3.58,1.45,9.14,2.35,16.78-.14,14.77-4.8,21.19-17.01,21.19-17.01,0,0-5.12-2.69-12.82-3.18Z"/>
      <path class="st0" d="M722.19,325.16s-10.29.21-20.21,8.03c.14,1.42.22,2.89.22,4.41,0,12.18-4.87,18.51-8.04,21.34,3.81,0,10.08-1.34,16.84-8.41,10.94-11.44,11.19-25.37,11.19-25.37Z"/>
      <path class="st0" d="M690.38,311.38s-9.24,10.04-9.24,26.22,9.24,20.82,9.24,20.82c0,0,9.24-4.64,9.24-20.82s-9.24-26.22-9.24-26.22Z"/>
      <path class="st0" d="M681.4,321.87c-4.84-4.62-9.19-6.48-9.19-6.48,0,0-1.38,3.94-1.59,9.95,2.69,1.12,5.62,2.67,8.56,4.82.51-3.07,1.31-5.84,2.22-8.29Z"/>
      <path class="st0" d="M710.14,325.34c-.21-6-1.59-9.94-1.59-9.94,0,0-4.35,1.86-9.2,6.48.91,2.44,1.7,5.22,2.22,8.28,2.94-2.15,5.87-3.71,8.56-4.82Z"/>
    </g>
    <g class="st1">
      <path class="st0" d="M660.25,442.57c-7.69.49-12.82,3.18-12.82,3.18,0,0,6.42,12.2,21.19,17.01,7.64,2.49,13.2,1.58,16.78.14-4.47-.28-10.81-2.2-17.46-9.17-3.48-3.64-5.95-7.51-7.7-11.16Z"/>
      <path class="st0" d="M678.57,438.89c0-1.52.08-3,.22-4.41-9.92-7.82-20.21-8.03-20.21-8.03,0,0,.26,13.93,11.19,25.37,6.76,7.07,13.03,8.42,16.84,8.41-3.17-2.83-8.04-9.16-8.04-21.34Z"/>
      <path class="st0" d="M720.52,442.57c-1.75,3.64-4.22,7.51-7.7,11.16-6.66,6.96-12.99,8.89-17.46,9.17,3.58,1.45,9.14,2.35,16.78-.14,14.77-4.8,21.19-17.01,21.19-17.01,0,0-5.12-2.69-12.82-3.18Z"/>
      <path class="st0" d="M722.19,426.45s-10.29.21-20.21,8.03c.14,1.42.22,2.89.22,4.41,0,12.18-4.87,18.51-8.04,21.34,3.81,0,10.08-1.34,16.84-8.41,10.94-11.44,11.19-25.37,11.19-25.37Z"/>
      <path class="st0" d="M690.38,412.68s-9.24,10.04-9.24,26.22,9.24,20.82,9.24,20.82c0,0,9.24-4.64,9.24-20.82s-9.24-26.22-9.24-26.22Z"/>
      <path class="st0" d="M681.4,423.16c-4.84-4.62-9.19-6.48-9.19-6.48,0,0-1.38,3.94-1.59,9.95,2.69,1.12,5.62,2.67,8.56,4.82.51-3.07,1.31-5.84,2.22-8.29Z"/>
      <path class="st0" d="M710.14,426.63c-.21-6-1.59-9.94-1.59-9.94,0,0-4.35,1.86-9.2,6.48.91,2.44,1.7,5.22,2.22,8.28,2.94-2.15,5.87-3.71,8.56-4.82Z"/>
    </g>
    <g class="st1">
      <path class="st0" d="M660.25,543.87c-7.69.49-12.82,3.18-12.82,3.18,0,0,6.42,12.2,21.19,17.01,7.64,2.49,13.2,1.58,16.78.14-4.47-.28-10.81-2.2-17.46-9.17-3.48-3.64-5.95-7.51-7.7-11.16Z"/>
      <path class="st0" d="M678.57,540.19c0-1.52.08-3,.22-4.41-9.92-7.82-20.21-8.03-20.21-8.03,0,0,.26,13.93,11.19,25.37,6.76,7.07,13.03,8.42,16.84,8.41-3.17-2.83-8.04-9.16-8.04-21.34Z"/>
      <path class="st0" d="M720.52,543.87c-1.75,3.64-4.22,7.51-7.7,11.16-6.66,6.96-12.99,8.89-17.46,9.17,3.58,1.45,9.14,2.35,16.78-.14,14.77-4.8,21.19-17.01,21.19-17.01,0,0-5.12-2.69-12.82-3.18Z"/>
      <path class="st0" d="M722.19,527.75s-10.29.21-20.21,8.03c.14,1.42.22,2.89.22,4.41,0,12.18-4.87,18.51-8.04,21.34,3.81,0,10.08-1.34,16.84-8.41,10.94-11.44,11.19-25.37,11.19-25.37Z"/>
      <path class="st0" d="M690.38,513.97s-9.24,10.04-9.24,26.22,9.24,20.82,9.24,20.82c0,0,9.24-4.64,9.24-20.82s-9.24-26.22-9.24-26.22Z"/>
      <path class="st0" d="M681.4,524.46c-4.84-4.62-9.19-6.48-9.19-6.48,0,0-1.38,3.94-1.59,9.95,2.69,1.12,5.62,2.67,8.56,4.82.51-3.07,1.31-5.84,2.22-8.29Z"/>
      <path class="st0" d="M710.14,527.92c-.21-6-1.59-9.94-1.59-9.94,0,0-4.35,1.86-9.2,6.48.91,2.44,1.7,5.22,2.22,8.28,2.94-2.15,5.87-3.71,8.56-4.82Z"/>
    </g>
  </g>
</svg>